0
SECTION
2
ENTITIES
0
CIRCLE
8
0
10
14.0
20
16.0
40
14.5
0
CIRCLE
8
0
10
14.0
20
50.0
40
14.5
0
CIRCLE
8
0
10
44.0
20
16.0
40
15.0
0
CIRCLE
8
0
10
44.0
20
50.0
40
15.0
0
CIRCLE
8
0
10
14.0
20
84.0
40
14.5
0
CIRCLE
8
0
10
14.0
20
117.0
40
14.5
0
CIRCLE
8
0
10
44.0
20
84.0
40
15.0
0
CIRCLE
8
0
10
44.0
20
117.0
40
15.0
0
CIRCLE
8
0
10
74.0
20
16.0
40
15.0
0
CIRCLE
8
0
10
74.0
20
50.0
40
15.0
0
CIRCLE
8
0
10
104.0
20
16.0
40
15.0
0
CIRCLE
8
0
10
104.0
20
50.0
40
15.0
0
CIRCLE
8
0
10
74.0
20
84.0
40
15.0
0
CIRCLE
8
0
10
74.0
20
117.0
40
15.0
0
CIRCLE
8
0
10
104.0
20
84.0
40
15.0
0
CIRCLE
8
0
10
104.0
20
117.0
40
15.0
0
CIRCLE
8
0
10
60.0
20
202.0
40
59.5
0
CIRCLE
8
0
10
134.0
20
16.0
40
15.0
0
CIRCLE
8
0
10
134.0
20
50.0
40
15.0
0
CIRCLE
8
0
10
164.0
20
16.0
40
15.0
0
CIRCLE
8
0
10
164.0
20
50.0
40
15.0
0
CIRCLE
8
0
10
134.0
20
84.0
40
15.0
0
CIRCLE
8
0
10
134.0
20
117.0
40
15.0
0
CIRCLE
8
0
10
164.0
20
84.0
40
15.0
0
CIRCLE
8
0
10
164.0
20
117.0
40
15.0
0
CIRCLE
8
0
10
194.0
20
16.0
40
15.0
0
CIRCLE
8
0
10
194.0
20
50.0
40
15.0
0
CIRCLE
8
0
10
224.0
20
16.0
40
15.0
0
CIRCLE
8
0
10
224.0
20
50.0
40
15.0
0
CIRCLE
8
0
10
194.0
20
84.0
40
15.0
0
CIRCLE
8
0
10
194.0
20
117.0
40
15.0
0
CIRCLE
8
0
10
224.0
20
84.0
40
15.0
0
CIRCLE
8
0
10
224.0
20
117.0
40
15.0
0
CIRCLE
8
0
10
179.0
20
202.0
40
60.0
0
CIRCLE
8
0
10
120.0
20
404.0
40
119.5
0
CIRCLE
8
0
10
254.0
20
16.0
40
15.0
0
CIRCLE
8
0
10
254.0
20
50.0
40
15.0
0
CIRCLE
8
0
10
284.0
20
16.0
40
15.0
0
CIRCLE
8
0
10
284.0
20
50.0
40
15.0
0
CIRCLE
8
0
10
254.0
20
84.0
40
15.0
0
CIRCLE
8
0
10
254.0
20
117.0
40
15.0
0
CIRCLE
8
0
10
284.0
20
84.0
40
15.0
0
CIRCLE
8
0
10
284.0
20
117.0
40
15.0
0
CIRCLE
8
0
10
314.0
20
16.0
40
15.0
0
CIRCLE
8
0
10
314.0
20
50.0
40
15.0
0
CIRCLE
8
0
10
344.0
20
16.0
40
15.0
0
CIRCLE
8
0
10
344.0
20
50.0
40
15.0
0
CIRCLE
8
0
10
314.0
20
84.0
40
15.0
0
CIRCLE
8
0
10
314.0
20
117.0
40
15.0
0
CIRCLE
8
0
10
344.0
20
84.0
40
15.0
0
CIRCLE
8
0
10
344.0
20
117.0
40
15.0
0
CIRCLE
8
0
10
299.0
20
202.0
40
60.0
0
CIRCLE
8
0
10
374.0
20
16.0
40
15.0
0
CIRCLE
8
0
10
374.0
20
50.0
40
15.0
0
CIRCLE
8
0
10
404.0
20
16.0
40
15.0
0
CIRCLE
8
0
10
404.0
20
50.0
40
15.0
0
CIRCLE
8
0
10
374.0
20
84.0
40
15.0
0
CIRCLE
8
0
10
374.0
20
117.0
40
15.0
0
CIRCLE
8
0
10
404.0
20
84.0
40
15.0
0
CIRCLE
8
0
10
404.0
20
117.0
40
15.0
0
CIRCLE
8
0
10
449.0
20
34.0
40
30.0
0
CIRCLE
8
0
10
434.0
20
84.0
40
15.0
0
CIRCLE
8
0
10
434.0
20
117.0
40
15.0
0
CIRCLE
8
0
10
464.0
20
84.0
40
15.0
0
CIRCLE
8
0
10
464.0
20
117.0
40
15.0
0
CIRCLE
8
0
10
419.0
20
202.0
40
60.0
0
CIRCLE
8
0
10
299.0
20
336.0
40
60.0
0
CIRCLE
8
0
10
299.0
20
472.0
40
60.0
0
CIRCLE
8
0
10
419.0
20
336.0
40
60.0
0
CIRCLE
8
0
10
419.0
20
472.0
40
60.0
0
CIRCLE
8
0
10
60.0
20
606.0
40
59.5
0
CIRCLE
8
0
10
30.0
20
708.0
40
29.5
0
CIRCLE
8
0
10
30.0
20
775.0
40
29.5
0
CIRCLE
8
0
10
89.0
20
708.0
40
30.0
0
CIRCLE
8
0
10
89.0
20
775.0
40
30.0
0
CIRCLE
8
0
10
149.0
20
572.0
40
30.0
0
CIRCLE
8
0
10
134.0
20
623.0
40
15.0
0
CIRCLE
8
0
10
134.0
20
657.0
40
15.0
0
CIRCLE
8
0
10
164.0
20
623.0
40
15.0
0
CIRCLE
8
0
10
164.0
20
657.0
40
15.0
0
CIRCLE
8
0
10
209.0
20
572.0
40
30.0
0
CIRCLE
8
0
10
194.0
20
623.0
40
15.0
0
CIRCLE
8
0
10
194.0
20
657.0
40
15.0
0
CIRCLE
8
0
10
224.0
20
623.0
40
15.0
0
CIRCLE
8
0
10
224.0
20
657.0
40
15.0
0
CIRCLE
8
0
10
179.0
20
742.0
40
60.0
0
CIRCLE
8
0
10
60.0
20
876.0
40
59.5
0
CIRCLE
8
0
10
14.0
20
960.0
40
14.5
0
CIRCLE
8
0
10
14.0
20
994.0
40
14.5
0
CIRCLE
8
0
10
44.0
20
960.0
40
15.0
0
CIRCLE
8
0
10
44.0
20
994.0
40
15.0
0
CIRCLE
8
0
10
30.0
20
1045.0
40
29.5
0
CIRCLE
8
0
10
89.0
20
978.0
40
30.0
0
CIRCLE
8
0
10
89.0
20
1045.0
40
30.0
0
CIRCLE
8
0
10
179.0
20
876.0
40
60.0
0
CIRCLE
8
0
10
149.0
20
978.0
40
30.0
0
CIRCLE
8
0
10
149.0
20
1045.0
40
30.0
0
CIRCLE
8
0
10
194.0
20
960.0
40
15.0
0
CIRCLE
8
0
10
194.0
20
994.0
40
15.0
0
CIRCLE
8
0
10
224.0
20
960.0
40
15.0
0
CIRCLE
8
0
10
224.0
20
994.0
40
15.0
0
CIRCLE
8
0
10
194.0
20
1028.0
40
15.0
0
CIRCLE
8
0
10
194.0
20
1062.0
40
15.0
0
CIRCLE
8
0
10
224.0
20
1028.0
40
15.0
0
CIRCLE
8
0
10
224.0
20
1062.0
40
15.0
0
CIRCLE
8
0
10
269.0
20
572.0
40
30.0
0
CIRCLE
8
0
10
269.0
20
640.0
40
30.0
0
CIRCLE
8
0
10
329.0
20
572.0
40
30.0
0
CIRCLE
8
0
10
314.0
20
623.0
40
15.0
0
CIRCLE
8
0
10
314.0
20
657.0
40
15.0
0
CIRCLE
8
0
10
344.0
20
623.0
40
15.0
0
CIRCLE
8
0
10
344.0
20
657.0
40
15.0
0
CIRCLE
8
0
10
269.0
20
708.0
40
30.0
0
CIRCLE
8
0
10
254.0
20
758.0
40
15.0
0
CIRCLE
8
0
10
254.0
20
792.0
40
15.0
0
CIRCLE
8
0
10
284.0
20
758.0
40
15.0
0
CIRCLE
8
0
10
284.0
20
792.0
40
15.0
0
CIRCLE
8
0
10
314.0
20
690.0
40
15.0
0
CIRCLE
8
0
10
314.0
20
724.0
40
15.0
0
CIRCLE
8
0
10
344.0
20
690.0
40
15.0
0
CIRCLE
8
0
10
374.0
20
556.0
40
15.0
0
CIRCLE
8
0
10
374.0
20
589.0
40
15.0
0
CIRCLE
8
0
10
404.0
20
556.0
40
15.0
0
CIRCLE
8
0
10
374.0
20
623.0
40
15.0
0
CIRCLE
8
0
10
374.0
20
724.0
40
15.0
0
CIRCLE
8
0
10
374.0
20
758.0
40
15.0
0
CIRCLE
8
0
10
374.0
20
792.0
40
15.0
0
CIRCLE
8
0
10
434.0
20
792.0
40
15.0
0
CIRCLE
8
0
10
254.0
20
826.0
40
15.0
0
CIRCLE
8
0
10
254.0
20
859.0
40
15.0
0
CIRCLE
8
0
10
284.0
20
826.0
40
15.0
0
CIRCLE
8
0
10
254.0
20
893.0
40
15.0
0
CIRCLE
8
0
10
284.0
20
927.0
40
15.0
0
CIRCLE
8
0
10
344.0
20
859.0
40
15.0
0
CIRCLE
8
0
10
314.0
20
927.0
40
15.0
0
CIRCLE
8
0
10
344.0
20
893.0
40
15.0
0
CIRCLE
8
0
10
344.0
20
927.0
40
15.0
0
CIRCLE
8
0
10
254.0
20
1062.0
40
15.0
0
CIRCLE
8
0
10
284.0
20
1028.0
40
15.0
0
CIRCLE
8
0
10
314.0
20
960.0
40
15.0
0
CIRCLE
8
0
10
314.0
20
994.0
40
15.0
0
CIRCLE
8
0
10
314.0
20
1028.0
40
15.0
0
CIRCLE
8
0
10
314.0
20
1062.0
40
15.0
0
CIRCLE
8
0
10
374.0
20
826.0
40
15.0
0
CIRCLE
8
0
10
494.0
20
16.0
40
15.0
0
CIRCLE
8
0
10
494.0
20
50.0
40
15.0
0
CIRCLE
8
0
10
524.0
20
16.0
40
15.0
0
CIRCLE
8
0
10
524.0
20
50.0
40
15.0
0
CIRCLE
8
0
10
494.0
20
84.0
40
15.0
0
CIRCLE
8
0
10
494.0
20
117.0
40
15.0
0
CIRCLE
8
0
10
524.0
20
84.0
40
15.0
0
CIRCLE
8
0
10
524.0
20
117.0
40
15.0
0
CIRCLE
8
0
10
554.0
20
16.0
40
15.0
0
CIRCLE
8
0
10
554.0
20
50.0
40
15.0
0
CIRCLE
8
0
10
584.0
20
16.0
40
15.0
0
CIRCLE
8
0
10
584.0
20
50.0
40
15.0
0
CIRCLE
8
0
10
554.0
20
84.0
40
15.0
0
CIRCLE
8
0
10
554.0
20
117.0
40
15.0
0
CIRCLE
8
0
10
584.0
20
84.0
40
15.0
0
CIRCLE
8
0
10
584.0
20
117.0
40
15.0
0
CIRCLE
8
0
10
539.0
20
202.0
40
60.0
0
CIRCLE
8
0
10
659.0
20
67.0
40
60.0
0
CIRCLE
8
0
10
629.0
20
168.0
40
30.0
0
CIRCLE
8
0
10
629.0
20
235.0
40
30.0
0
CIRCLE
8
0
10
674.0
20
150.0
40
15.0
0
CIRCLE
8
0
10
674.0
20
184.0
40
15.0
0
CIRCLE
8
0
10
704.0
20
150.0
40
15.0
0
CIRCLE
8
0
10
704.0
20
184.0
40
15.0
0
CIRCLE
8
0
10
674.0
20
218.0
40
15.0
0
CIRCLE
8
0
10
674.0
20
252.0
40
15.0
0
CIRCLE
8
0
10
704.0
20
218.0
40
15.0
0
CIRCLE
8
0
10
704.0
20
252.0
40
15.0
0
CIRCLE
8
0
10
539.0
20
336.0
40
60.0
0
CIRCLE
8
0
10
509.0
20
438.0
40
30.0
0
CIRCLE
8
0
10
494.0
20
488.0
40
15.0
0
CIRCLE
8
0
10
524.0
20
488.0
40
15.0
0
CIRCLE
8
0
10
524.0
20
522.0
40
15.0
0
CIRCLE
8
0
10
569.0
20
438.0
40
30.0
0
CIRCLE
8
0
10
554.0
20
488.0
40
15.0
0
CIRCLE
8
0
10
554.0
20
522.0
40
15.0
0
CIRCLE
8
0
10
584.0
20
488.0
40
15.0
0
CIRCLE
8
0
10
614.0
20
286.0
40
15.0
0
CIRCLE
8
0
10
614.0
20
319.0
40
15.0
0
CIRCLE
8
0
10
644.0
20
286.0
40
15.0
0
CIRCLE
8
0
10
644.0
20
319.0
40
15.0
0
CIRCLE
8
0
10
614.0
20
353.0
40
15.0
0
CIRCLE
8
0
10
614.0
20
387.0
40
15.0
0
CIRCLE
8
0
10
644.0
20
353.0
40
15.0
0
CIRCLE
8
0
10
644.0
20
387.0
40
15.0
0
CIRCLE
8
0
10
674.0
20
286.0
40
15.0
0
CIRCLE
8
0
10
674.0
20
319.0
40
15.0
0
CIRCLE
8
0
10
704.0
20
286.0
40
15.0
0
CIRCLE
8
0
10
704.0
20
319.0
40
15.0
0
CIRCLE
8
0
10
689.0
20
370.0
40
30.0
0
CIRCLE
8
0
10
614.0
20
420.0
40
15.0
0
CIRCLE
8
0
10
614.0
20
454.0
40
15.0
0
CIRCLE
8
0
10
644.0
20
420.0
40
15.0
0
CIRCLE
8
0
10
644.0
20
454.0
40
15.0
0
CIRCLE
8
0
10
614.0
20
488.0
40
15.0
0
CIRCLE
8
0
10
644.0
20
488.0
40
15.0
0
CIRCLE
8
0
10
644.0
20
522.0
40
15.0
0
CIRCLE
8
0
10
674.0
20
420.0
40
15.0
0
CIRCLE
8
0
10
674.0
20
454.0
40
15.0
0
CIRCLE
8
0
10
704.0
20
420.0
40
15.0
0
CIRCLE
8
0
10
704.0
20
454.0
40
15.0
0
CIRCLE
8
0
10
689.0
20
505.0
40
30.0
0
CIRCLE
8
0
10
749.0
20
34.0
40
30.0
0
CIRCLE
8
0
10
749.0
20
100.0
40
30.0
0
CIRCLE
8
0
10
809.0
20
34.0
40
30.0
0
CIRCLE
8
0
10
794.0
20
84.0
40
15.0
0
CIRCLE
8
0
10
794.0
20
117.0
40
15.0
0
CIRCLE
8
0
10
824.0
20
84.0
40
15.0
0
CIRCLE
8
0
10
824.0
20
117.0
40
15.0
0
CIRCLE
8
0
10
734.0
20
150.0
40
15.0
0
CIRCLE
8
0
10
734.0
20
184.0
40
15.0
0
CIRCLE
8
0
10
764.0
20
150.0
40
15.0
0
CIRCLE
8
0
10
764.0
20
184.0
40
15.0
0
CIRCLE
8
0
10
734.0
20
218.0
40
15.0
0
CIRCLE
8
0
10
734.0
20
252.0
40
15.0
0
CIRCLE
8
0
10
764.0
20
218.0
40
15.0
0
CIRCLE
8
0
10
764.0
20
252.0
40
15.0
0
CIRCLE
8
0
10
794.0
20
150.0
40
15.0
0
CIRCLE
8
0
10
794.0
20
184.0
40
15.0
0
CIRCLE
8
0
10
824.0
20
150.0
40
15.0
0
CIRCLE
8
0
10
824.0
20
184.0
40
15.0
0
CIRCLE
8
0
10
794.0
20
218.0
40
15.0
0
CIRCLE
8
0
10
824.0
20
218.0
40
15.0
0
CIRCLE
8
0
10
824.0
20
252.0
40
15.0
0
CIRCLE
8
0
10
869.0
20
34.0
40
30.0
0
CIRCLE
8
0
10
854.0
20
84.0
40
15.0
0
CIRCLE
8
0
10
854.0
20
117.0
40
15.0
0
CIRCLE
8
0
10
884.0
20
84.0
40
15.0
0
CIRCLE
8
0
10
884.0
20
117.0
40
15.0
0
CIRCLE
8
0
10
929.0
20
34.0
40
30.0
0
CIRCLE
8
0
10
929.0
20
100.0
40
30.0
0
CIRCLE
8
0
10
854.0
20
150.0
40
15.0
0
CIRCLE
8
0
10
854.0
20
184.0
40
15.0
0
CIRCLE
8
0
10
884.0
20
150.0
40
15.0
0
CIRCLE
8
0
10
884.0
20
184.0
40
15.0
0
CIRCLE
8
0
10
854.0
20
218.0
40
15.0
0
CIRCLE
8
0
10
854.0
20
252.0
40
15.0
0
CIRCLE
8
0
10
884.0
20
218.0
40
15.0
0
CIRCLE
8
0
10
884.0
20
252.0
40
15.0
0
CIRCLE
8
0
10
929.0
20
168.0
40
30.0
0
CIRCLE
8
0
10
929.0
20
235.0
40
30.0
0
CIRCLE
8
0
10
734.0
20
286.0
40
15.0
0
CIRCLE
8
0
10
734.0
20
319.0
40
15.0
0
CIRCLE
8
0
10
764.0
20
319.0
40
15.0
0
CIRCLE
8
0
10
734.0
20
353.0
40
15.0
0
CIRCLE
8
0
10
734.0
20
387.0
40
15.0
0
CIRCLE
8
0
10
764.0
20
353.0
40
15.0
0
CIRCLE
8
0
10
764.0
20
387.0
40
15.0
0
CIRCLE
8
0
10
794.0
20
319.0
40
15.0
0
CIRCLE
8
0
10
824.0
20
286.0
40
15.0
0
CIRCLE
8
0
10
824.0
20
319.0
40
15.0
0
CIRCLE
8
0
10
794.0
20
353.0
40
15.0
0
CIRCLE
8
0
10
794.0
20
387.0
40
15.0
0
CIRCLE
8
0
10
734.0
20
420.0
40
15.0
0
CIRCLE
8
0
10
734.0
20
454.0
40
15.0
0
CIRCLE
8
0
10
734.0
20
522.0
40
15.0
0
CIRCLE
8
0
10
764.0
20
522.0
40
15.0
0
CIRCLE
8
0
10
794.0
20
420.0
40
15.0
0
CIRCLE
8
0
10
794.0
20
454.0
40
15.0
0
CIRCLE
8
0
10
794.0
20
488.0
40
15.0
0
CIRCLE
8
0
10
854.0
20
319.0
40
15.0
0
CIRCLE
8
0
10
914.0
20
286.0
40
15.0
0
CIRCLE
8
0
10
914.0
20
319.0
40
15.0
0
CIRCLE
8
0
10
944.0
20
286.0
40
15.0
0
CIRCLE
8
0
10
944.0
20
319.0
40
15.0
0
CIRCLE
8
0
10
944.0
20
353.0
40
15.0
0
CIRCLE
8
0
10
944.0
20
387.0
40
15.0
0
CIRCLE
8
0
10
914.0
20
454.0
40
15.0
0
CIRCLE
8
0
10
944.0
20
420.0
40
15.0
0
CIRCLE
8
0
10
944.0
20
454.0
40
15.0
0
CIRCLE
8
0
10
914.0
20
488.0
40
15.0
0
CIRCLE
8
0
10
944.0
20
488.0
40
15.0
0
CIRCLE
8
0
10
944.0
20
522.0
40
15.0
0
CIRCLE
8
0
10
584.0
20
792.0
40
15.0
0
CIRCLE
8
0
10
614.0
20
556.0
40
15.0
0
CIRCLE
8
0
10
644.0
20
556.0
40
15.0
0
CIRCLE
8
0
10
614.0
20
623.0
40
15.0
0
CIRCLE
8
0
10
614.0
20
657.0
40
15.0
0
CIRCLE
8
0
10
644.0
20
623.0
40
15.0
0
CIRCLE
8
0
10
644.0
20
657.0
40
15.0
0
CIRCLE
8
0
10
689.0
20
572.0
40
30.0
0
CIRCLE
8
0
10
689.0
20
640.0
40
30.0
0
CIRCLE
8
0
10
614.0
20
690.0
40
15.0
0
CIRCLE
8
0
10
614.0
20
724.0
40
15.0
0
CIRCLE
8
0
10
644.0
20
690.0
40
15.0
0
CIRCLE
8
0
10
644.0
20
724.0
40
15.0
0
CIRCLE
8
0
10
614.0
20
758.0
40
15.0
0
CIRCLE
8
0
10
614.0
20
792.0
40
15.0
0
CIRCLE
8
0
10
644.0
20
758.0
40
15.0
0
CIRCLE
8
0
10
644.0
20
792.0
40
15.0
0
CIRCLE
8
0
10
674.0
20
690.0
40
15.0
0
CIRCLE
8
0
10
674.0
20
724.0
40
15.0
0
CIRCLE
8
0
10
704.0
20
690.0
40
15.0
0
CIRCLE
8
0
10
704.0
20
724.0
40
15.0
0
CIRCLE
8
0
10
674.0
20
758.0
40
15.0
0
CIRCLE
8
0
10
674.0
20
792.0
40
15.0
0
CIRCLE
8
0
10
704.0
20
758.0
40
15.0
0
CIRCLE
8
0
10
704.0
20
792.0
40
15.0
0
CIRCLE
8
0
10
524.0
20
859.0
40
15.0
0
CIRCLE
8
0
10
554.0
20
859.0
40
15.0
0
CIRCLE
8
0
10
584.0
20
826.0
40
15.0
0
CIRCLE
8
0
10
584.0
20
859.0
40
15.0
0
CIRCLE
8
0
10
524.0
20
1062.0
40
15.0
0
CIRCLE
8
0
10
554.0
20
1028.0
40
15.0
0
CIRCLE
8
0
10
554.0
20
1062.0
40
15.0
0
CIRCLE
8
0
10
614.0
20
859.0
40
15.0
0
CIRCLE
8
0
10
644.0
20
826.0
40
15.0
0
CIRCLE
8
0
10
644.0
20
859.0
40
15.0
0
CIRCLE
8
0
10
644.0
20
893.0
40
15.0
0
CIRCLE
8
0
10
674.0
20
826.0
40
15.0
0
CIRCLE
8
0
10
674.0
20
859.0
40
15.0
0
CIRCLE
8
0
10
704.0
20
826.0
40
15.0
0
CIRCLE
8
0
10
704.0
20
859.0
40
15.0
0
CIRCLE
8
0
10
674.0
20
893.0
40
15.0
0
CIRCLE
8
0
10
674.0
20
927.0
40
15.0
0
CIRCLE
8
0
10
704.0
20
893.0
40
15.0
0
CIRCLE
8
0
10
704.0
20
927.0
40
15.0
0
CIRCLE
8
0
10
644.0
20
960.0
40
15.0
0
CIRCLE
8
0
10
644.0
20
994.0
40
15.0
0
CIRCLE
8
0
10
614.0
20
1028.0
40
15.0
0
CIRCLE
8
0
10
614.0
20
1062.0
40
15.0
0
CIRCLE
8
0
10
644.0
20
1028.0
40
15.0
0
CIRCLE
8
0
10
644.0
20
1062.0
40
15.0
0
CIRCLE
8
0
10
674.0
20
960.0
40
15.0
0
CIRCLE
8
0
10
674.0
20
994.0
40
15.0
0
CIRCLE
8
0
10
704.0
20
960.0
40
15.0
0
CIRCLE
8
0
10
704.0
20
994.0
40
15.0
0
CIRCLE
8
0
10
674.0
20
1028.0
40
15.0
0
CIRCLE
8
0
10
674.0
20
1062.0
40
15.0
0
CIRCLE
8
0
10
704.0
20
1028.0
40
15.0
0
CIRCLE
8
0
10
704.0
20
1062.0
40
15.0
0
CIRCLE
8
0
10
749.0
20
572.0
40
30.0
0
CIRCLE
8
0
10
749.0
20
640.0
40
30.0
0
CIRCLE
8
0
10
809.0
20
572.0
40
30.0
0
CIRCLE
8
0
10
794.0
20
623.0
40
15.0
0
CIRCLE
8
0
10
824.0
20
623.0
40
15.0
0
CIRCLE
8
0
10
824.0
20
657.0
40
15.0
0
CIRCLE
8
0
10
734.0
20
690.0
40
15.0
0
CIRCLE
8
0
10
734.0
20
724.0
40
15.0
0
CIRCLE
8
0
10
764.0
20
690.0
40
15.0
0
CIRCLE
8
0
10
734.0
20
758.0
40
15.0
0
CIRCLE
8
0
10
764.0
20
758.0
40
15.0
0
CIRCLE
8
0
10
764.0
20
792.0
40
15.0
0
CIRCLE
8
0
10
794.0
20
690.0
40
15.0
0
CIRCLE
8
0
10
794.0
20
724.0
40
15.0
0
CIRCLE
8
0
10
824.0
20
690.0
40
15.0
0
CIRCLE
8
0
10
824.0
20
724.0
40
15.0
0
CIRCLE
8
0
10
794.0
20
758.0
40
15.0
0
CIRCLE
8
0
10
794.0
20
792.0
40
15.0
0
CIRCLE
8
0
10
824.0
20
758.0
40
15.0
0
CIRCLE
8
0
10
824.0
20
792.0
40
15.0
0
CIRCLE
8
0
10
854.0
20
556.0
40
15.0
0
CIRCLE
8
0
10
854.0
20
589.0
40
15.0
0
CIRCLE
8
0
10
884.0
20
556.0
40
15.0
0
CIRCLE
8
0
10
854.0
20
623.0
40
15.0
0
CIRCLE
8
0
10
854.0
20
657.0
40
15.0
0
CIRCLE
8
0
10
884.0
20
623.0
40
15.0
0
CIRCLE
8
0
10
884.0
20
657.0
40
15.0
0
CIRCLE
8
0
10
914.0
20
556.0
40
15.0
0
CIRCLE
8
0
10
914.0
20
589.0
40
15.0
0
CIRCLE
8
0
10
944.0
20
556.0
40
15.0
0
CIRCLE
8
0
10
944.0
20
589.0
40
15.0
0
CIRCLE
8
0
10
914.0
20
623.0
40
15.0
0
CIRCLE
8
0
10
914.0
20
657.0
40
15.0
0
CIRCLE
8
0
10
944.0
20
623.0
40
15.0
0
CIRCLE
8
0
10
944.0
20
657.0
40
15.0
0
CIRCLE
8
0
10
854.0
20
690.0
40
15.0
0
CIRCLE
8
0
10
854.0
20
724.0
40
15.0
0
CIRCLE
8
0
10
884.0
20
690.0
40
15.0
0
CIRCLE
8
0
10
884.0
20
724.0
40
15.0
0
CIRCLE
8
0
10
854.0
20
758.0
40
15.0
0
CIRCLE
8
0
10
854.0
20
792.0
40
15.0
0
CIRCLE
8
0
10
884.0
20
758.0
40
15.0
0
CIRCLE
8
0
10
884.0
20
792.0
40
15.0
0
CIRCLE
8
0
10
914.0
20
690.0
40
15.0
0
CIRCLE
8
0
10
914.0
20
724.0
40
15.0
0
CIRCLE
8
0
10
944.0
20
690.0
40
15.0
0
CIRCLE
8
0
10
944.0
20
724.0
40
15.0
0
CIRCLE
8
0
10
914.0
20
758.0
40
15.0
0
CIRCLE
8
0
10
914.0
20
792.0
40
15.0
0
CIRCLE
8
0
10
944.0
20
758.0
40
15.0
0
CIRCLE
8
0
10
944.0
20
792.0
40
15.0
0
CIRCLE
8
0
10
734.0
20
826.0
40
15.0
0
CIRCLE
8
0
10
734.0
20
859.0
40
15.0
0
CIRCLE
8
0
10
764.0
20
826.0
40
15.0
0
CIRCLE
8
0
10
764.0
20
859.0
40
15.0
0
CIRCLE
8
0
10
734.0
20
893.0
40
15.0
0
CIRCLE
8
0
10
734.0
20
927.0
40
15.0
0
CIRCLE
8
0
10
764.0
20
893.0
40
15.0
0
CIRCLE
8
0
10
764.0
20
927.0
40
15.0
0
CIRCLE
8
0
10
794.0
20
826.0
40
15.0
0
CIRCLE
8
0
10
794.0
20
859.0
40
15.0
0
CIRCLE
8
0
10
824.0
20
826.0
40
15.0
0
CIRCLE
8
0
10
824.0
20
859.0
40
15.0
0
CIRCLE
8
0
10
794.0
20
893.0
40
15.0
0
CIRCLE
8
0
10
794.0
20
927.0
40
15.0
0
CIRCLE
8
0
10
824.0
20
893.0
40
15.0
0
CIRCLE
8
0
10
824.0
20
927.0
40
15.0
0
CIRCLE
8
0
10
734.0
20
960.0
40
15.0
0
CIRCLE
8
0
10
734.0
20
994.0
40
15.0
0
CIRCLE
8
0
10
764.0
20
960.0
40
15.0
0
CIRCLE
8
0
10
764.0
20
994.0
40
15.0
0
CIRCLE
8
0
10
734.0
20
1028.0
40
15.0
0
CIRCLE
8
0
10
734.0
20
1062.0
40
15.0
0
CIRCLE
8
0
10
764.0
20
1028.0
40
15.0
0
CIRCLE
8
0
10
764.0
20
1062.0
40
15.0
0
CIRCLE
8
0
10
794.0
20
960.0
40
15.0
0
CIRCLE
8
0
10
794.0
20
994.0
40
15.0
0
CIRCLE
8
0
10
824.0
20
960.0
40
15.0
0
CIRCLE
8
0
10
824.0
20
994.0
40
15.0
0
CIRCLE
8
0
10
794.0
20
1028.0
40
15.0
0
CIRCLE
8
0
10
794.0
20
1062.0
40
15.0
0
CIRCLE
8
0
10
824.0
20
1028.0
40
15.0
0
CIRCLE
8
0
10
824.0
20
1062.0
40
15.0
0
CIRCLE
8
0
10
854.0
20
826.0
40
15.0
0
CIRCLE
8
0
10
854.0
20
859.0
40
15.0
0
CIRCLE
8
0
10
884.0
20
826.0
40
15.0
0
CIRCLE
8
0
10
884.0
20
859.0
40
15.0
0
CIRCLE
8
0
10
854.0
20
893.0
40
15.0
0
CIRCLE
8
0
10
854.0
20
927.0
40
15.0
0
CIRCLE
8
0
10
884.0
20
893.0
40
15.0
0
CIRCLE
8
0
10
884.0
20
927.0
40
15.0
0
CIRCLE
8
0
10
914.0
20
826.0
40
15.0
0
CIRCLE
8
0
10
914.0
20
859.0
40
15.0
0
CIRCLE
8
0
10
944.0
20
826.0
40
15.0
0
CIRCLE
8
0
10
944.0
20
859.0
40
15.0
0
CIRCLE
8
0
10
914.0
20
893.0
40
15.0
0
CIRCLE
8
0
10
914.0
20
927.0
40
15.0
0
CIRCLE
8
0
10
944.0
20
893.0
40
15.0
0
CIRCLE
8
0
10
944.0
20
927.0
40
15.0
0
CIRCLE
8
0
10
854.0
20
960.0
40
15.0
0
CIRCLE
8
0
10
854.0
20
994.0
40
15.0
0
CIRCLE
8
0
10
884.0
20
960.0
40
15.0
0
CIRCLE
8
0
10
884.0
20
994.0
40
15.0
0
CIRCLE
8
0
10
854.0
20
1028.0
40
15.0
0
CIRCLE
8
0
10
854.0
20
1062.0
40
15.0
0
CIRCLE
8
0
10
884.0
20
1028.0
40
15.0
0
CIRCLE
8
0
10
884.0
20
1062.0
40
15.0
0
CIRCLE
8
0
10
914.0
20
960.0
40
15.0
0
CIRCLE
8
0
10
914.0
20
994.0
40
15.0
0
CIRCLE
8
0
10
944.0
20
960.0
40
15.0
0
CIRCLE
8
0
10
944.0
20
994.0
40
15.0
0
CIRCLE
8
0
10
914.0
20
1028.0
40
15.0
0
CIRCLE
8
0
10
914.0
20
1062.0
40
15.0
0
CIRCLE
8
0
10
944.0
20
1028.0
40
15.0
0
CIRCLE
8
0
10
944.0
20
1062.0
40
15.0
0
CIRCLE
8
0
10
974.0
20
16.0
40
15.0
0
CIRCLE
8
0
10
974.0
20
50.0
40
15.0
0
CIRCLE
8
0
10
1004.0
20
16.0
40
15.0
0
CIRCLE
8
0
10
1004.0
20
50.0
40
15.0
0
CIRCLE
8
0
10
989.0
20
100.0
40
30.0
0
CIRCLE
8
0
10
1049.0
20
34.0
40
30.0
0
CIRCLE
8
0
10
1034.0
20
84.0
40
15.0
0
CIRCLE
8
0
10
1034.0
20
117.0
40
15.0
0
CIRCLE
8
0
10
1064.0
20
84.0
40
15.0
0
CIRCLE
8
0
10
1064.0
20
117.0
40
15.0
0
CIRCLE
8
0
10
1019.0
20
202.0
40
60.0
0
CIRCLE
8
0
10
1139.0
20
67.0
40
60.0
0
CIRCLE
8
0
10
1094.0
20
150.0
40
15.0
0
CIRCLE
8
0
10
1094.0
20
184.0
40
15.0
0
CIRCLE
8
0
10
1124.0
20
150.0
40
15.0
0
CIRCLE
8
0
10
1124.0
20
184.0
40
15.0
0
CIRCLE
8
0
10
1109.0
20
235.0
40
30.0
0
CIRCLE
8
0
10
1154.0
20
150.0
40
15.0
0
CIRCLE
8
0
10
1154.0
20
184.0
40
15.0
0
CIRCLE
8
0
10
1184.0
20
150.0
40
15.0
0
CIRCLE
8
0
10
1184.0
20
184.0
40
15.0
0
CIRCLE
8
0
10
1169.0
20
235.0
40
30.0
0
CIRCLE
8
0
10
1019.0
20
336.0
40
60.0
0
CIRCLE
8
0
10
1019.0
20
472.0
40
60.0
0
CIRCLE
8
0
10
1139.0
20
336.0
40
60.0
0
CIRCLE
8
0
10
1139.0
20
472.0
40
60.0
0
CIRCLE
8
0
10
1229.0
20
34.0
40
30.0
0
CIRCLE
8
0
10
1214.0
20
84.0
40
15.0
0
CIRCLE
8
0
10
1214.0
20
117.0
40
15.0
0
CIRCLE
8
0
10
1244.0
20
84.0
40
15.0
0
CIRCLE
8
0
10
1244.0
20
117.0
40
15.0
0
CIRCLE
8
0
10
1289.0
20
34.0
40
30.0
0
CIRCLE
8
0
10
1274.0
20
84.0
40
15.0
0
CIRCLE
8
0
10
1274.0
20
117.0
40
15.0
0
CIRCLE
8
0
10
1304.0
20
84.0
40
15.0
0
CIRCLE
8
0
10
1304.0
20
117.0
40
15.0
0
CIRCLE
8
0
10
1214.0
20
150.0
40
15.0
0
CIRCLE
8
0
10
1214.0
20
184.0
40
15.0
0
CIRCLE
8
0
10
1244.0
20
150.0
40
15.0
0
CIRCLE
8
0
10
1244.0
20
184.0
40
15.0
0
CIRCLE
8
0
10
1229.0
20
235.0
40
30.0
0
CIRCLE
8
0
10
1274.0
20
150.0
40
15.0
0
CIRCLE
8
0
10
1274.0
20
184.0
40
15.0
0
CIRCLE
8
0
10
1304.0
20
150.0
40
15.0
0
CIRCLE
8
0
10
1304.0
20
184.0
40
15.0
0
CIRCLE
8
0
10
1274.0
20
218.0
40
15.0
0
CIRCLE
8
0
10
1274.0
20
252.0
40
15.0
0
CIRCLE
8
0
10
1304.0
20
218.0
40
15.0
0
CIRCLE
8
0
10
1304.0
20
252.0
40
15.0
0
CIRCLE
8
0
10
1379.0
20
67.0
40
60.0
0
CIRCLE
8
0
10
1379.0
20
202.0
40
60.0
0
CIRCLE
8
0
10
1319.0
20
404.0
40
120.0
0
CIRCLE
8
0
10
974.0
20
589.0
40
15.0
0
CIRCLE
8
0
10
1004.0
20
556.0
40
15.0
0
CIRCLE
8
0
10
974.0
20
623.0
40
15.0
0
CIRCLE
8
0
10
974.0
20
657.0
40
15.0
0
CIRCLE
8
0
10
1004.0
20
657.0
40
15.0
0
CIRCLE
8
0
10
1034.0
20
556.0
40
15.0
0
CIRCLE
8
0
10
1064.0
20
556.0
40
15.0
0
CIRCLE
8
0
10
1064.0
20
589.0
40
15.0
0
CIRCLE
8
0
10
1034.0
20
623.0
40
15.0
0
CIRCLE
8
0
10
1034.0
20
657.0
40
15.0
0
CIRCLE
8
0
10
1064.0
20
623.0
40
15.0
0
CIRCLE
8
0
10
1064.0
20
657.0
40
15.0
0
CIRCLE
8
0
10
974.0
20
690.0
40
15.0
0
CIRCLE
8
0
10
974.0
20
724.0
40
15.0
0
CIRCLE
8
0
10
1004.0
20
690.0
40
15.0
0
CIRCLE
8
0
10
1004.0
20
724.0
40
15.0
0
CIRCLE
8
0
10
974.0
20
758.0
40
15.0
0
CIRCLE
8
0
10
974.0
20
792.0
40
15.0
0
CIRCLE
8
0
10
1004.0
20
758.0
40
15.0
0
CIRCLE
8
0
10
1004.0
20
792.0
40
15.0
0
CIRCLE
8
0
10
1034.0
20
724.0
40
15.0
0
CIRCLE
8
0
10
1064.0
20
690.0
40
15.0
0
CIRCLE
8
0
10
1064.0
20
724.0
40
15.0
0
CIRCLE
8
0
10
1034.0
20
758.0
40
15.0
0
CIRCLE
8
0
10
1034.0
20
792.0
40
15.0
0
CIRCLE
8
0
10
1064.0
20
758.0
40
15.0
0
CIRCLE
8
0
10
1064.0
20
792.0
40
15.0
0
CIRCLE
8
0
10
1094.0
20
556.0
40
15.0
0
CIRCLE
8
0
10
1094.0
20
589.0
40
15.0
0
CIRCLE
8
0
10
1124.0
20
556.0
40
15.0
0
CIRCLE
8
0
10
1124.0
20
589.0
40
15.0
0
CIRCLE
8
0
10
1094.0
20
623.0
40
15.0
0
CIRCLE
8
0
10
1124.0
20
623.0
40
15.0
0
CIRCLE
8
0
10
1124.0
20
657.0
40
15.0
0
CIRCLE
8
0
10
1169.0
20
572.0
40
30.0
0
CIRCLE
8
0
10
1169.0
20
640.0
40
30.0
0
CIRCLE
8
0
10
1124.0
20
690.0
40
15.0
0
CIRCLE
8
0
10
1124.0
20
724.0
40
15.0
0
CIRCLE
8
0
10
1094.0
20
758.0
40
15.0
0
CIRCLE
8
0
10
1094.0
20
792.0
40
15.0
0
CIRCLE
8
0
10
1124.0
20
758.0
40
15.0
0
CIRCLE
8
0
10
1124.0
20
792.0
40
15.0
0
CIRCLE
8
0
10
1154.0
20
690.0
40
15.0
0
CIRCLE
8
0
10
1154.0
20
724.0
40
15.0
0
CIRCLE
8
0
10
1184.0
20
690.0
40
15.0
0
CIRCLE
8
0
10
1184.0
20
724.0
40
15.0
0
CIRCLE
8
0
10
1154.0
20
758.0
40
15.0
0
CIRCLE
8
0
10
1154.0
20
792.0
40
15.0
0
CIRCLE
8
0
10
1184.0
20
758.0
40
15.0
0
CIRCLE
8
0
10
1184.0
20
792.0
40
15.0
0
CIRCLE
8
0
10
974.0
20
826.0
40
15.0
0
CIRCLE
8
0
10
974.0
20
859.0
40
15.0
0
CIRCLE
8
0
10
1004.0
20
826.0
40
15.0
0
CIRCLE
8
0
10
1004.0
20
859.0
40
15.0
0
CIRCLE
8
0
10
974.0
20
893.0
40
15.0
0
CIRCLE
8
0
10
974.0
20
927.0
40
15.0
0
CIRCLE
8
0
10
1004.0
20
893.0
40
15.0
0
CIRCLE
8
0
10
1004.0
20
927.0
40
15.0
0
CIRCLE
8
0
10
1034.0
20
826.0
40
15.0
0
CIRCLE
8
0
10
1034.0
20
859.0
40
15.0
0
CIRCLE
8
0
10
1064.0
20
826.0
40
15.0
0
CIRCLE
8
0
10
1064.0
20
859.0
40
15.0
0
CIRCLE
8
0
10
1034.0
20
893.0
40
15.0
0
CIRCLE
8
0
10
1034.0
20
927.0
40
15.0
0
CIRCLE
8
0
10
1064.0
20
893.0
40
15.0
0
CIRCLE
8
0
10
1064.0
20
927.0
40
15.0
0
CIRCLE
8
0
10
974.0
20
960.0
40
15.0
0
CIRCLE
8
0
10
974.0
20
994.0
40
15.0
0
CIRCLE
8
0
10
1004.0
20
960.0
40
15.0
0
CIRCLE
8
0
10
1004.0
20
994.0
40
15.0
0
CIRCLE
8
0
10
974.0
20
1028.0
40
15.0
0
CIRCLE
8
0
10
974.0
20
1062.0
40
15.0
0
CIRCLE
8
0
10
1004.0
20
1028.0
40
15.0
0
CIRCLE
8
0
10
1004.0
20
1062.0
40
15.0
0
CIRCLE
8
0
10
1034.0
20
960.0
40
15.0
0
CIRCLE
8
0
10
1034.0
20
994.0
40
15.0
0
CIRCLE
8
0
10
1064.0
20
960.0
40
15.0
0
CIRCLE
8
0
10
1064.0
20
994.0
40
15.0
0
CIRCLE
8
0
10
1034.0
20
1028.0
40
15.0
0
CIRCLE
8
0
10
1034.0
20
1062.0
40
15.0
0
CIRCLE
8
0
10
1064.0
20
1028.0
40
15.0
0
CIRCLE
8
0
10
1064.0
20
1062.0
40
15.0
0
CIRCLE
8
0
10
1094.0
20
826.0
40
15.0
0
CIRCLE
8
0
10
1094.0
20
859.0
40
15.0
0
CIRCLE
8
0
10
1124.0
20
826.0
40
15.0
0
CIRCLE
8
0
10
1124.0
20
859.0
40
15.0
0
CIRCLE
8
0
10
1094.0
20
893.0
40
15.0
0
CIRCLE
8
0
10
1094.0
20
927.0
40
15.0
0
CIRCLE
8
0
10
1124.0
20
893.0
40
15.0
0
CIRCLE
8
0
10
1124.0
20
927.0
40
15.0
0
CIRCLE
8
0
10
1154.0
20
826.0
40
15.0
0
CIRCLE
8
0
10
1154.0
20
859.0
40
15.0
0
CIRCLE
8
0
10
1184.0
20
826.0
40
15.0
0
CIRCLE
8
0
10
1184.0
20
859.0
40
15.0
0
CIRCLE
8
0
10
1154.0
20
893.0
40
15.0
0
CIRCLE
8
0
10
1154.0
20
927.0
40
15.0
0
CIRCLE
8
0
10
1184.0
20
893.0
40
15.0
0
CIRCLE
8
0
10
1184.0
20
927.0
40
15.0
0
CIRCLE
8
0
10
1094.0
20
960.0
40
15.0
0
CIRCLE
8
0
10
1094.0
20
994.0
40
15.0
0
CIRCLE
8
0
10
1124.0
20
960.0
40
15.0
0
CIRCLE
8
0
10
1124.0
20
994.0
40
15.0
0
CIRCLE
8
0
10
1094.0
20
1028.0
40
15.0
0
CIRCLE
8
0
10
1094.0
20
1062.0
40
15.0
0
CIRCLE
8
0
10
1124.0
20
1028.0
40
15.0
0
CIRCLE
8
0
10
1124.0
20
1062.0
40
15.0
0
CIRCLE
8
0
10
1154.0
20
960.0
40
15.0
0
CIRCLE
8
0
10
1154.0
20
994.0
40
15.0
0
CIRCLE
8
0
10
1184.0
20
960.0
40
15.0
0
CIRCLE
8
0
10
1184.0
20
994.0
40
15.0
0
CIRCLE
8
0
10
1154.0
20
1028.0
40
15.0
0
CIRCLE
8
0
10
1154.0
20
1062.0
40
15.0
0
CIRCLE
8
0
10
1184.0
20
1028.0
40
15.0
0
CIRCLE
8
0
10
1184.0
20
1062.0
40
15.0
0
CIRCLE
8
0
10
1319.0
20
674.0
40
120.0
0
CIRCLE
8
0
10
1259.0
20
876.0
40
60.0
0
CIRCLE
8
0
10
1214.0
20
960.0
40
15.0
0
CIRCLE
8
0
10
1244.0
20
960.0
40
15.0
0
CIRCLE
8
0
10
1214.0
20
1028.0
40
15.0
0
CIRCLE
8
0
10
1214.0
20
1062.0
40
15.0
0
CIRCLE
8
0
10
1244.0
20
1028.0
40
15.0
0
CIRCLE
8
0
10
1244.0
20
1062.0
40
15.0
0
CIRCLE
8
0
10
1289.0
20
978.0
40
30.0
0
CIRCLE
8
0
10
1274.0
20
1028.0
40
15.0
0
CIRCLE
8
0
10
1274.0
20
1062.0
40
15.0
0
CIRCLE
8
0
10
1304.0
20
1028.0
40
15.0
0
CIRCLE
8
0
10
1304.0
20
1062.0
40
15.0
0
CIRCLE
8
0
10
1379.0
20
876.0
40
60.0
0
CIRCLE
8
0
10
1379.0
20
1012.0
40
60.0
0
CIRCLE
8
0
10
1469.0
20
34.0
40
30.0
0
CIRCLE
8
0
10
1454.0
20
84.0
40
15.0
0
CIRCLE
8
0
10
1454.0
20
117.0
40
15.0
0
CIRCLE
8
0
10
1484.0
20
84.0
40
15.0
0
CIRCLE
8
0
10
1484.0
20
117.0
40
15.0
0
CIRCLE
8
0
10
1514.0
20
16.0
40
15.0
0
CIRCLE
8
0
10
1514.0
20
50.0
40
15.0
0
CIRCLE
8
0
10
1544.0
20
16.0
40
15.0
0
CIRCLE
8
0
10
1544.0
20
50.0
40
15.0
0
CIRCLE
8
0
10
1514.0
20
84.0
40
15.0
0
CIRCLE
8
0
10
1514.0
20
117.0
40
15.0
0
CIRCLE
8
0
10
1544.0
20
84.0
40
15.0
0
CIRCLE
8
0
10
1544.0
20
117.0
40
15.0
0
CIRCLE
8
0
10
1499.0
20
202.0
40
60.0
0
CIRCLE
8
0
10
1574.0
20
16.0
40
15.0
0
CIRCLE
8
0
10
1574.0
20
50.0
40
15.0
0
CIRCLE
8
0
10
1604.0
20
16.0
40
15.0
0
CIRCLE
8
0
10
1604.0
20
50.0
40
15.0
0
CIRCLE
8
0
10
1574.0
20
84.0
40
15.0
0
CIRCLE
8
0
10
1574.0
20
117.0
40
15.0
0
CIRCLE
8
0
10
1604.0
20
84.0
40
15.0
0
CIRCLE
8
0
10
1604.0
20
117.0
40
15.0
0
CIRCLE
8
0
10
1634.0
20
16.0
40
15.0
0
CIRCLE
8
0
10
1634.0
20
50.0
40
15.0
0
CIRCLE
8
0
10
1664.0
20
16.0
40
15.0
0
CIRCLE
8
0
10
1664.0
20
50.0
40
15.0
0
CIRCLE
8
0
10
1634.0
20
84.0
40
15.0
0
CIRCLE
8
0
10
1634.0
20
117.0
40
15.0
0
CIRCLE
8
0
10
1664.0
20
84.0
40
15.0
0
CIRCLE
8
0
10
1664.0
20
117.0
40
15.0
0
CIRCLE
8
0
10
1574.0
20
150.0
40
15.0
0
CIRCLE
8
0
10
1574.0
20
184.0
40
15.0
0
CIRCLE
8
0
10
1604.0
20
150.0
40
15.0
0
CIRCLE
8
0
10
1604.0
20
184.0
40
15.0
0
CIRCLE
8
0
10
1574.0
20
218.0
40
15.0
0
CIRCLE
8
0
10
1574.0
20
252.0
40
15.0
0
CIRCLE
8
0
10
1604.0
20
218.0
40
15.0
0
CIRCLE
8
0
10
1604.0
20
252.0
40
15.0
0
CIRCLE
8
0
10
1634.0
20
150.0
40
15.0
0
CIRCLE
8
0
10
1634.0
20
184.0
40
15.0
0
CIRCLE
8
0
10
1664.0
20
150.0
40
15.0
0
CIRCLE
8
0
10
1664.0
20
184.0
40
15.0
0
CIRCLE
8
0
10
1634.0
20
218.0
40
15.0
0
CIRCLE
8
0
10
1634.0
20
252.0
40
15.0
0
CIRCLE
8
0
10
1664.0
20
218.0
40
15.0
0
CIRCLE
8
0
10
1664.0
20
252.0
40
15.0
0
CIRCLE
8
0
10
1469.0
20
302.0
40
30.0
0
CIRCLE
8
0
10
1469.0
20
370.0
40
30.0
0
CIRCLE
8
0
10
1514.0
20
286.0
40
15.0
0
CIRCLE
8
0
10
1514.0
20
319.0
40
15.0
0
CIRCLE
8
0
10
1544.0
20
286.0
40
15.0
0
CIRCLE
8
0
10
1544.0
20
319.0
40
15.0
0
CIRCLE
8
0
10
1529.0
20
370.0
40
30.0
0
CIRCLE
8
0
10
1499.0
20
472.0
40
60.0
0
CIRCLE
8
0
10
1574.0
20
286.0
40
15.0
0
CIRCLE
8
0
10
1574.0
20
319.0
40
15.0
0
CIRCLE
8
0
10
1604.0
20
286.0
40
15.0
0
CIRCLE
8
0
10
1604.0
20
319.0
40
15.0
0
CIRCLE
8
0
10
1589.0
20
370.0
40
30.0
0
CIRCLE
8
0
10
1634.0
20
286.0
40
15.0
0
CIRCLE
8
0
10
1634.0
20
319.0
40
15.0
0
CIRCLE
8
0
10
1664.0
20
286.0
40
15.0
0
CIRCLE
8
0
10
1664.0
20
319.0
40
15.0
0
CIRCLE
8
0
10
1649.0
20
370.0
40
30.0
0
CIRCLE
8
0
10
1619.0
20
472.0
40
60.0
0
CIRCLE
8
0
10
1694.0
20
16.0
40
15.0
0
CIRCLE
8
0
10
1694.0
20
50.0
40
15.0
0
CIRCLE
8
0
10
1724.0
20
16.0
40
15.0
0
CIRCLE
8
0
10
1724.0
20
50.0
40
15.0
0
CIRCLE
8
0
10
1694.0
20
84.0
40
15.0
0
CIRCLE
8
0
10
1694.0
20
117.0
40
15.0
0
CIRCLE
8
0
10
1724.0
20
84.0
40
15.0
0
CIRCLE
8
0
10
1724.0
20
117.0
40
15.0
0
CIRCLE
8
0
10
1754.0
20
16.0
40
15.0
0
CIRCLE
8
0
10
1754.0
20
50.0
40
15.0
0
CIRCLE
8
0
10
1784.0
20
16.0
40
15.0
0
CIRCLE
8
0
10
1784.0
20
50.0
40
15.0
0
CIRCLE
8
0
10
1754.0
20
84.0
40
15.0
0
CIRCLE
8
0
10
1754.0
20
117.0
40
15.0
0
CIRCLE
8
0
10
1784.0
20
84.0
40
15.0
0
CIRCLE
8
0
10
1784.0
20
117.0
40
15.0
0
CIRCLE
8
0
10
1694.0
20
150.0
40
15.0
0
CIRCLE
8
0
10
1694.0
20
184.0
40
15.0
0
CIRCLE
8
0
10
1724.0
20
150.0
40
15.0
0
CIRCLE
8
0
10
1724.0
20
184.0
40
15.0
0
CIRCLE
8
0
10
1709.0
20
235.0
40
30.0
0
CIRCLE
8
0
10
1754.0
20
150.0
40
15.0
0
CIRCLE
8
0
10
1754.0
20
184.0
40
15.0
0
CIRCLE
8
0
10
1784.0
20
150.0
40
15.0
0
CIRCLE
8
0
10
1784.0
20
184.0
40
15.0
0
CIRCLE
8
0
10
1754.0
20
218.0
40
15.0
0
CIRCLE
8
0
10
1754.0
20
252.0
40
15.0
0
CIRCLE
8
0
10
1784.0
20
218.0
40
15.0
0
CIRCLE
8
0
10
1784.0
20
252.0
40
15.0
0
CIRCLE
8
0
10
1814.0
20
16.0
40
15.0
0
CIRCLE
8
0
10
1814.0
20
50.0
40
15.0
0
CIRCLE
8
0
10
1844.0
20
16.0
40
15.0
0
CIRCLE
8
0
10
1844.0
20
50.0
40
15.0
0
CIRCLE
8
0
10
1814.0
20
84.0
40
15.0
0
CIRCLE
8
0
10
1814.0
20
117.0
40
15.0
0
CIRCLE
8
0
10
1844.0
20
84.0
40
15.0
0
CIRCLE
8
0
10
1844.0
20
117.0
40
15.0
0
CIRCLE
8
0
10
1874.0
20
16.0
40
15.0
0
CIRCLE
8
0
10
1874.0
20
50.0
40
15.0
0
CIRCLE
8
0
10
1904.0
20
16.0
40
15.0
0
CIRCLE
8
0
10
1904.0
20
50.0
40
15.0
0
CIRCLE
8
0
10
1874.0
20
84.0
40
15.0
0
CIRCLE
8
0
10
1874.0
20
117.0
40
15.0
0
CIRCLE
8
0
10
1904.0
20
84.0
40
15.0
0
CIRCLE
8
0
10
1904.0
20
117.0
40
15.0
0
CIRCLE
8
0
10
1814.0
20
150.0
40
15.0
0
CIRCLE
8
0
10
1814.0
20
184.0
40
15.0
0
CIRCLE
8
0
10
1844.0
20
150.0
40
15.0
0
CIRCLE
8
0
10
1844.0
20
184.0
40
15.0
0
CIRCLE
8
0
10
1814.0
20
218.0
40
15.0
0
CIRCLE
8
0
10
1814.0
20
252.0
40
15.0
0
CIRCLE
8
0
10
1844.0
20
218.0
40
15.0
0
CIRCLE
8
0
10
1844.0
20
252.0
40
15.0
0
CIRCLE
8
0
10
1874.0
20
150.0
40
15.0
0
CIRCLE
8
0
10
1874.0
20
184.0
40
15.0
0
CIRCLE
8
0
10
1904.0
20
150.0
40
15.0
0
CIRCLE
8
0
10
1904.0
20
184.0
40
15.0
0
CIRCLE
8
0
10
1874.0
20
218.0
40
15.0
0
CIRCLE
8
0
10
1874.0
20
252.0
40
15.0
0
CIRCLE
8
0
10
1904.0
20
218.0
40
15.0
0
CIRCLE
8
0
10
1904.0
20
252.0
40
15.0
0
CIRCLE
8
0
10
1694.0
20
286.0
40
15.0
0
CIRCLE
8
0
10
1694.0
20
319.0
40
15.0
0
CIRCLE
8
0
10
1724.0
20
286.0
40
15.0
0
CIRCLE
8
0
10
1724.0
20
319.0
40
15.0
0
CIRCLE
8
0
10
1709.0
20
370.0
40
30.0
0
CIRCLE
8
0
10
1754.0
20
286.0
40
15.0
0
CIRCLE
8
0
10
1754.0
20
319.0
40
15.0
0
CIRCLE
8
0
10
1784.0
20
286.0
40
15.0
0
CIRCLE
8
0
10
1784.0
20
319.0
40
15.0
0
CIRCLE
8
0
10
1769.0
20
370.0
40
30.0
0
CIRCLE
8
0
10
1739.0
20
472.0
40
60.0
0
CIRCLE
8
0
10
1814.0
20
286.0
40
15.0
0
CIRCLE
8
0
10
1814.0
20
319.0
40
15.0
0
CIRCLE
8
0
10
1844.0
20
286.0
40
15.0
0
CIRCLE
8
0
10
1844.0
20
319.0
40
15.0
0
CIRCLE
8
0
10
1829.0
20
370.0
40
30.0
0
CIRCLE
8
0
10
1874.0
20
286.0
40
15.0
0
CIRCLE
8
0
10
1874.0
20
319.0
40
15.0
0
CIRCLE
8
0
10
1904.0
20
286.0
40
15.0
0
CIRCLE
8
0
10
1904.0
20
319.0
40
15.0
0
CIRCLE
8
0
10
1874.0
20
353.0
40
15.0
0
CIRCLE
8
0
10
1874.0
20
387.0
40
15.0
0
CIRCLE
8
0
10
1904.0
20
353.0
40
15.0
0
CIRCLE
8
0
10
1904.0
20
387.0
40
15.0
0
CIRCLE
8
0
10
1859.0
20
472.0
40
60.0
0
CIRCLE
8
0
10
1679.0
20
809.0
40
240.0
0
ENDSEC
0
EOF
