0
SECTION
2
ENTITIES
0
CIRCLE
8
0
10
50.0
20
50.0
40
25.0
0
CIRCLE
8
0
10
2069.0
20
50.0
40
25.0
0
CIRCLE
8
0
10
50.0
20
1227.0
40
25.0
0
CIRCLE
8
0
10
2069.0
20
1227.0
40
25.0
0
CIRCLE
8
0
10
114.0
20
1161.0
40
14.5
0
CIRCLE
8
0
10
144.0
20
1161.0
40
15.0
0
CIRCLE
8
0
10
144.0
20
1127.0
40
15.0
0
CIRCLE
8
0
10
114.0
20
1093.0
40
14.5
0
CIRCLE
8
0
10
144.0
20
1093.0
40
15.0
0
CIRCLE
8
0
10
204.0
20
1161.0
40
15.0
0
CIRCLE
8
0
10
204.0
20
1127.0
40
15.0
0
CIRCLE
8
0
10
174.0
20
1093.0
40
15.0
0
CIRCLE
8
0
10
204.0
20
1093.0
40
15.0
0
CIRCLE
8
0
10
234.0
20
1161.0
40
15.0
0
CIRCLE
8
0
10
234.0
20
1127.0
40
15.0
0
CIRCLE
8
0
10
264.0
20
1161.0
40
15.0
0
CIRCLE
8
0
10
264.0
20
1127.0
40
15.0
0
CIRCLE
8
0
10
234.0
20
1093.0
40
15.0
0
CIRCLE
8
0
10
264.0
20
1093.0
40
15.0
0
CIRCLE
8
0
10
264.0
20
1060.0
40
15.0
0
CIRCLE
8
0
10
294.0
20
1161.0
40
15.0
0
CIRCLE
8
0
10
294.0
20
1127.0
40
15.0
0
CIRCLE
8
0
10
324.0
20
1161.0
40
15.0
0
CIRCLE
8
0
10
324.0
20
1127.0
40
15.0
0
CIRCLE
8
0
10
294.0
20
1093.0
40
15.0
0
CIRCLE
8
0
10
294.0
20
1060.0
40
15.0
0
CIRCLE
8
0
10
324.0
20
1093.0
40
15.0
0
CIRCLE
8
0
10
324.0
20
1060.0
40
15.0
0
CIRCLE
8
0
10
354.0
20
1161.0
40
15.0
0
CIRCLE
8
0
10
354.0
20
1127.0
40
15.0
0
CIRCLE
8
0
10
384.0
20
1161.0
40
15.0
0
CIRCLE
8
0
10
354.0
20
1093.0
40
15.0
0
CIRCLE
8
0
10
354.0
20
1060.0
40
15.0
0
CIRCLE
8
0
10
384.0
20
1093.0
40
15.0
0
CIRCLE
8
0
10
384.0
20
1060.0
40
15.0
0
CIRCLE
8
0
10
414.0
20
1093.0
40
15.0
0
CIRCLE
8
0
10
414.0
20
1060.0
40
15.0
0
CIRCLE
8
0
10
444.0
20
1093.0
40
15.0
0
CIRCLE
8
0
10
444.0
20
1060.0
40
15.0
0
CIRCLE
8
0
10
504.0
20
1161.0
40
15.0
0
CIRCLE
8
0
10
504.0
20
1127.0
40
15.0
0
CIRCLE
8
0
10
474.0
20
1093.0
40
15.0
0
CIRCLE
8
0
10
474.0
20
1060.0
40
15.0
0
CIRCLE
8
0
10
504.0
20
1093.0
40
15.0
0
CIRCLE
8
0
10
504.0
20
1060.0
40
15.0
0
CIRCLE
8
0
10
549.0
20
1143.0
40
30.0
0
CIRCLE
8
0
10
534.0
20
1093.0
40
15.0
0
CIRCLE
8
0
10
534.0
20
1060.0
40
15.0
0
CIRCLE
8
0
10
564.0
20
1093.0
40
15.0
0
CIRCLE
8
0
10
564.0
20
1060.0
40
15.0
0
CIRCLE
8
0
10
399.0
20
705.0
40
60.0
0
CIRCLE
8
0
10
519.0
20
705.0
40
60.0
0
CIRCLE
8
0
10
160.0
20
571.0
40
59.5
0
CIRCLE
8
0
10
130.0
20
469.0
40
29.5
0
CIRCLE
8
0
10
130.0
20
402.0
40
29.5
0
CIRCLE
8
0
10
249.0
20
605.0
40
30.0
0
CIRCLE
8
0
10
264.0
20
554.0
40
15.0
0
CIRCLE
8
0
10
309.0
20
605.0
40
30.0
0
CIRCLE
8
0
10
294.0
20
554.0
40
15.0
0
CIRCLE
8
0
10
324.0
20
554.0
40
15.0
0
CIRCLE
8
0
10
324.0
20
520.0
40
15.0
0
CIRCLE
8
0
10
160.0
20
301.0
40
59.5
0
CIRCLE
8
0
10
114.0
20
217.0
40
14.5
0
CIRCLE
8
0
10
114.0
20
183.0
40
14.5
0
CIRCLE
8
0
10
144.0
20
183.0
40
15.0
0
CIRCLE
8
0
10
130.0
20
132.0
40
29.5
0
CIRCLE
8
0
10
369.0
20
605.0
40
30.0
0
CIRCLE
8
0
10
429.0
20
605.0
40
30.0
0
CIRCLE
8
0
10
414.0
20
554.0
40
15.0
0
CIRCLE
8
0
10
414.0
20
520.0
40
15.0
0
CIRCLE
8
0
10
444.0
20
554.0
40
15.0
0
CIRCLE
8
0
10
444.0
20
453.0
40
15.0
0
CIRCLE
8
0
10
414.0
20
419.0
40
15.0
0
CIRCLE
8
0
10
414.0
20
385.0
40
15.0
0
CIRCLE
8
0
10
444.0
20
419.0
40
15.0
0
CIRCLE
8
0
10
444.0
20
385.0
40
15.0
0
CIRCLE
8
0
10
474.0
20
621.0
40
15.0
0
CIRCLE
8
0
10
474.0
20
588.0
40
15.0
0
CIRCLE
8
0
10
504.0
20
621.0
40
15.0
0
CIRCLE
8
0
10
504.0
20
588.0
40
15.0
0
CIRCLE
8
0
10
474.0
20
554.0
40
15.0
0
CIRCLE
8
0
10
474.0
20
520.0
40
15.0
0
CIRCLE
8
0
10
504.0
20
554.0
40
15.0
0
CIRCLE
8
0
10
504.0
20
520.0
40
15.0
0
CIRCLE
8
0
10
534.0
20
621.0
40
15.0
0
CIRCLE
8
0
10
534.0
20
588.0
40
15.0
0
CIRCLE
8
0
10
564.0
20
621.0
40
15.0
0
CIRCLE
8
0
10
564.0
20
588.0
40
15.0
0
CIRCLE
8
0
10
534.0
20
554.0
40
15.0
0
CIRCLE
8
0
10
534.0
20
520.0
40
15.0
0
CIRCLE
8
0
10
564.0
20
554.0
40
15.0
0
CIRCLE
8
0
10
564.0
20
520.0
40
15.0
0
CIRCLE
8
0
10
474.0
20
487.0
40
15.0
0
CIRCLE
8
0
10
474.0
20
453.0
40
15.0
0
CIRCLE
8
0
10
504.0
20
487.0
40
15.0
0
CIRCLE
8
0
10
504.0
20
453.0
40
15.0
0
CIRCLE
8
0
10
474.0
20
419.0
40
15.0
0
CIRCLE
8
0
10
474.0
20
385.0
40
15.0
0
CIRCLE
8
0
10
504.0
20
419.0
40
15.0
0
CIRCLE
8
0
10
504.0
20
385.0
40
15.0
0
CIRCLE
8
0
10
534.0
20
487.0
40
15.0
0
CIRCLE
8
0
10
534.0
20
453.0
40
15.0
0
CIRCLE
8
0
10
564.0
20
487.0
40
15.0
0
CIRCLE
8
0
10
564.0
20
453.0
40
15.0
0
CIRCLE
8
0
10
534.0
20
419.0
40
15.0
0
CIRCLE
8
0
10
534.0
20
385.0
40
15.0
0
CIRCLE
8
0
10
564.0
20
419.0
40
15.0
0
CIRCLE
8
0
10
564.0
20
385.0
40
15.0
0
CIRCLE
8
0
10
384.0
20
318.0
40
15.0
0
CIRCLE
8
0
10
354.0
20
250.0
40
15.0
0
CIRCLE
8
0
10
384.0
20
284.0
40
15.0
0
CIRCLE
8
0
10
384.0
20
250.0
40
15.0
0
CIRCLE
8
0
10
414.0
20
351.0
40
15.0
0
CIRCLE
8
0
10
414.0
20
318.0
40
15.0
0
CIRCLE
8
0
10
444.0
20
351.0
40
15.0
0
CIRCLE
8
0
10
444.0
20
318.0
40
15.0
0
CIRCLE
8
0
10
414.0
20
284.0
40
15.0
0
CIRCLE
8
0
10
414.0
20
250.0
40
15.0
0
CIRCLE
8
0
10
444.0
20
284.0
40
15.0
0
CIRCLE
8
0
10
444.0
20
250.0
40
15.0
0
CIRCLE
8
0
10
354.0
20
217.0
40
15.0
0
CIRCLE
8
0
10
354.0
20
183.0
40
15.0
0
CIRCLE
8
0
10
384.0
20
217.0
40
15.0
0
CIRCLE
8
0
10
384.0
20
183.0
40
15.0
0
CIRCLE
8
0
10
354.0
20
149.0
40
15.0
0
CIRCLE
8
0
10
354.0
20
115.0
40
15.0
0
CIRCLE
8
0
10
384.0
20
149.0
40
15.0
0
CIRCLE
8
0
10
384.0
20
115.0
40
15.0
0
CIRCLE
8
0
10
414.0
20
217.0
40
15.0
0
CIRCLE
8
0
10
414.0
20
183.0
40
15.0
0
CIRCLE
8
0
10
444.0
20
217.0
40
15.0
0
CIRCLE
8
0
10
444.0
20
183.0
40
15.0
0
CIRCLE
8
0
10
414.0
20
149.0
40
15.0
0
CIRCLE
8
0
10
414.0
20
115.0
40
15.0
0
CIRCLE
8
0
10
444.0
20
149.0
40
15.0
0
CIRCLE
8
0
10
444.0
20
115.0
40
15.0
0
CIRCLE
8
0
10
474.0
20
351.0
40
15.0
0
CIRCLE
8
0
10
474.0
20
318.0
40
15.0
0
CIRCLE
8
0
10
504.0
20
351.0
40
15.0
0
CIRCLE
8
0
10
504.0
20
318.0
40
15.0
0
CIRCLE
8
0
10
474.0
20
284.0
40
15.0
0
CIRCLE
8
0
10
474.0
20
250.0
40
15.0
0
CIRCLE
8
0
10
504.0
20
284.0
40
15.0
0
CIRCLE
8
0
10
504.0
20
250.0
40
15.0
0
CIRCLE
8
0
10
534.0
20
351.0
40
15.0
0
CIRCLE
8
0
10
534.0
20
318.0
40
15.0
0
CIRCLE
8
0
10
564.0
20
351.0
40
15.0
0
CIRCLE
8
0
10
564.0
20
318.0
40
15.0
0
CIRCLE
8
0
10
534.0
20
284.0
40
15.0
0
CIRCLE
8
0
10
534.0
20
250.0
40
15.0
0
CIRCLE
8
0
10
564.0
20
284.0
40
15.0
0
CIRCLE
8
0
10
564.0
20
250.0
40
15.0
0
CIRCLE
8
0
10
474.0
20
217.0
40
15.0
0
CIRCLE
8
0
10
474.0
20
183.0
40
15.0
0
CIRCLE
8
0
10
504.0
20
217.0
40
15.0
0
CIRCLE
8
0
10
504.0
20
183.0
40
15.0
0
CIRCLE
8
0
10
474.0
20
149.0
40
15.0
0
CIRCLE
8
0
10
474.0
20
115.0
40
15.0
0
CIRCLE
8
0
10
504.0
20
149.0
40
15.0
0
CIRCLE
8
0
10
504.0
20
115.0
40
15.0
0
CIRCLE
8
0
10
534.0
20
217.0
40
15.0
0
CIRCLE
8
0
10
534.0
20
183.0
40
15.0
0
CIRCLE
8
0
10
564.0
20
217.0
40
15.0
0
CIRCLE
8
0
10
564.0
20
183.0
40
15.0
0
CIRCLE
8
0
10
534.0
20
149.0
40
15.0
0
CIRCLE
8
0
10
534.0
20
115.0
40
15.0
0
CIRCLE
8
0
10
564.0
20
149.0
40
15.0
0
CIRCLE
8
0
10
564.0
20
115.0
40
15.0
0
CIRCLE
8
0
10
594.0
20
1161.0
40
15.0
0
CIRCLE
8
0
10
594.0
20
1127.0
40
15.0
0
CIRCLE
8
0
10
624.0
20
1161.0
40
15.0
0
CIRCLE
8
0
10
624.0
20
1127.0
40
15.0
0
CIRCLE
8
0
10
594.0
20
1093.0
40
15.0
0
CIRCLE
8
0
10
594.0
20
1060.0
40
15.0
0
CIRCLE
8
0
10
624.0
20
1093.0
40
15.0
0
CIRCLE
8
0
10
624.0
20
1060.0
40
15.0
0
CIRCLE
8
0
10
654.0
20
1161.0
40
15.0
0
CIRCLE
8
0
10
654.0
20
1127.0
40
15.0
0
CIRCLE
8
0
10
684.0
20
1161.0
40
15.0
0
CIRCLE
8
0
10
654.0
20
1093.0
40
15.0
0
CIRCLE
8
0
10
654.0
20
1060.0
40
15.0
0
CIRCLE
8
0
10
684.0
20
1093.0
40
15.0
0
CIRCLE
8
0
10
684.0
20
1060.0
40
15.0
0
CIRCLE
8
0
10
759.0
20
1110.0
40
60.0
0
CIRCLE
8
0
10
774.0
20
1027.0
40
15.0
0
CIRCLE
8
0
10
804.0
20
1027.0
40
15.0
0
CIRCLE
8
0
10
774.0
20
959.0
40
15.0
0
CIRCLE
8
0
10
804.0
20
959.0
40
15.0
0
CIRCLE
8
0
10
804.0
20
925.0
40
15.0
0
CIRCLE
8
0
10
609.0
20
739.0
40
30.0
0
CIRCLE
8
0
10
594.0
20
689.0
40
15.0
0
CIRCLE
8
0
10
594.0
20
655.0
40
15.0
0
CIRCLE
8
0
10
624.0
20
689.0
40
15.0
0
CIRCLE
8
0
10
624.0
20
655.0
40
15.0
0
CIRCLE
8
0
10
669.0
20
739.0
40
30.0
0
CIRCLE
8
0
10
654.0
20
689.0
40
15.0
0
CIRCLE
8
0
10
654.0
20
655.0
40
15.0
0
CIRCLE
8
0
10
684.0
20
689.0
40
15.0
0
CIRCLE
8
0
10
684.0
20
655.0
40
15.0
0
CIRCLE
8
0
10
714.0
20
790.0
40
15.0
0
CIRCLE
8
0
10
744.0
20
824.0
40
15.0
0
CIRCLE
8
0
10
744.0
20
790.0
40
15.0
0
CIRCLE
8
0
10
774.0
20
891.0
40
15.0
0
CIRCLE
8
0
10
774.0
20
858.0
40
15.0
0
CIRCLE
8
0
10
804.0
20
891.0
40
15.0
0
CIRCLE
8
0
10
804.0
20
858.0
40
15.0
0
CIRCLE
8
0
10
789.0
20
807.0
40
30.0
0
CIRCLE
8
0
10
714.0
20
757.0
40
15.0
0
CIRCLE
8
0
10
714.0
20
723.0
40
15.0
0
CIRCLE
8
0
10
744.0
20
757.0
40
15.0
0
CIRCLE
8
0
10
744.0
20
723.0
40
15.0
0
CIRCLE
8
0
10
714.0
20
689.0
40
15.0
0
CIRCLE
8
0
10
714.0
20
655.0
40
15.0
0
CIRCLE
8
0
10
744.0
20
689.0
40
15.0
0
CIRCLE
8
0
10
744.0
20
655.0
40
15.0
0
CIRCLE
8
0
10
774.0
20
757.0
40
15.0
0
CIRCLE
8
0
10
774.0
20
723.0
40
15.0
0
CIRCLE
8
0
10
804.0
20
757.0
40
15.0
0
CIRCLE
8
0
10
804.0
20
723.0
40
15.0
0
CIRCLE
8
0
10
789.0
20
672.0
40
30.0
0
CIRCLE
8
0
10
849.0
20
1143.0
40
30.0
0
CIRCLE
8
0
10
849.0
20
1077.0
40
30.0
0
CIRCLE
8
0
10
894.0
20
1093.0
40
15.0
0
CIRCLE
8
0
10
924.0
20
1093.0
40
15.0
0
CIRCLE
8
0
10
834.0
20
1027.0
40
15.0
0
CIRCLE
8
0
10
864.0
20
1027.0
40
15.0
0
CIRCLE
8
0
10
864.0
20
993.0
40
15.0
0
CIRCLE
8
0
10
834.0
20
959.0
40
15.0
0
CIRCLE
8
0
10
834.0
20
925.0
40
15.0
0
CIRCLE
8
0
10
864.0
20
959.0
40
15.0
0
CIRCLE
8
0
10
864.0
20
925.0
40
15.0
0
CIRCLE
8
0
10
894.0
20
993.0
40
15.0
0
CIRCLE
8
0
10
924.0
20
993.0
40
15.0
0
CIRCLE
8
0
10
894.0
20
959.0
40
15.0
0
CIRCLE
8
0
10
894.0
20
925.0
40
15.0
0
CIRCLE
8
0
10
924.0
20
959.0
40
15.0
0
CIRCLE
8
0
10
924.0
20
925.0
40
15.0
0
CIRCLE
8
0
10
954.0
20
1093.0
40
15.0
0
CIRCLE
8
0
10
984.0
20
1093.0
40
15.0
0
CIRCLE
8
0
10
1029.0
20
1077.0
40
30.0
0
CIRCLE
8
0
10
954.0
20
993.0
40
15.0
0
CIRCLE
8
0
10
954.0
20
959.0
40
15.0
0
CIRCLE
8
0
10
954.0
20
925.0
40
15.0
0
CIRCLE
8
0
10
984.0
20
959.0
40
15.0
0
CIRCLE
8
0
10
984.0
20
925.0
40
15.0
0
CIRCLE
8
0
10
834.0
20
891.0
40
15.0
0
CIRCLE
8
0
10
834.0
20
858.0
40
15.0
0
CIRCLE
8
0
10
864.0
20
891.0
40
15.0
0
CIRCLE
8
0
10
864.0
20
858.0
40
15.0
0
CIRCLE
8
0
10
834.0
20
824.0
40
15.0
0
CIRCLE
8
0
10
834.0
20
790.0
40
15.0
0
CIRCLE
8
0
10
864.0
20
824.0
40
15.0
0
CIRCLE
8
0
10
864.0
20
790.0
40
15.0
0
CIRCLE
8
0
10
894.0
20
891.0
40
15.0
0
CIRCLE
8
0
10
894.0
20
858.0
40
15.0
0
CIRCLE
8
0
10
924.0
20
891.0
40
15.0
0
CIRCLE
8
0
10
924.0
20
858.0
40
15.0
0
CIRCLE
8
0
10
894.0
20
824.0
40
15.0
0
CIRCLE
8
0
10
894.0
20
790.0
40
15.0
0
CIRCLE
8
0
10
924.0
20
824.0
40
15.0
0
CIRCLE
8
0
10
924.0
20
790.0
40
15.0
0
CIRCLE
8
0
10
834.0
20
757.0
40
15.0
0
CIRCLE
8
0
10
834.0
20
723.0
40
15.0
0
CIRCLE
8
0
10
864.0
20
757.0
40
15.0
0
CIRCLE
8
0
10
864.0
20
723.0
40
15.0
0
CIRCLE
8
0
10
834.0
20
689.0
40
15.0
0
CIRCLE
8
0
10
834.0
20
655.0
40
15.0
0
CIRCLE
8
0
10
864.0
20
689.0
40
15.0
0
CIRCLE
8
0
10
864.0
20
655.0
40
15.0
0
CIRCLE
8
0
10
894.0
20
757.0
40
15.0
0
CIRCLE
8
0
10
894.0
20
723.0
40
15.0
0
CIRCLE
8
0
10
924.0
20
757.0
40
15.0
0
CIRCLE
8
0
10
924.0
20
723.0
40
15.0
0
CIRCLE
8
0
10
894.0
20
689.0
40
15.0
0
CIRCLE
8
0
10
894.0
20
655.0
40
15.0
0
CIRCLE
8
0
10
924.0
20
689.0
40
15.0
0
CIRCLE
8
0
10
924.0
20
655.0
40
15.0
0
CIRCLE
8
0
10
954.0
20
891.0
40
15.0
0
CIRCLE
8
0
10
954.0
20
858.0
40
15.0
0
CIRCLE
8
0
10
984.0
20
891.0
40
15.0
0
CIRCLE
8
0
10
984.0
20
858.0
40
15.0
0
CIRCLE
8
0
10
954.0
20
824.0
40
15.0
0
CIRCLE
8
0
10
954.0
20
790.0
40
15.0
0
CIRCLE
8
0
10
984.0
20
824.0
40
15.0
0
CIRCLE
8
0
10
984.0
20
790.0
40
15.0
0
CIRCLE
8
0
10
1014.0
20
858.0
40
15.0
0
CIRCLE
8
0
10
1014.0
20
824.0
40
15.0
0
CIRCLE
8
0
10
1014.0
20
790.0
40
15.0
0
CIRCLE
8
0
10
1044.0
20
790.0
40
15.0
0
CIRCLE
8
0
10
954.0
20
757.0
40
15.0
0
CIRCLE
8
0
10
954.0
20
723.0
40
15.0
0
CIRCLE
8
0
10
984.0
20
757.0
40
15.0
0
CIRCLE
8
0
10
984.0
20
723.0
40
15.0
0
CIRCLE
8
0
10
954.0
20
689.0
40
15.0
0
CIRCLE
8
0
10
954.0
20
655.0
40
15.0
0
CIRCLE
8
0
10
984.0
20
689.0
40
15.0
0
CIRCLE
8
0
10
984.0
20
655.0
40
15.0
0
CIRCLE
8
0
10
1014.0
20
757.0
40
15.0
0
CIRCLE
8
0
10
1014.0
20
723.0
40
15.0
0
CIRCLE
8
0
10
1044.0
20
757.0
40
15.0
0
CIRCLE
8
0
10
1014.0
20
689.0
40
15.0
0
CIRCLE
8
0
10
1014.0
20
655.0
40
15.0
0
CIRCLE
8
0
10
1044.0
20
655.0
40
15.0
0
CIRCLE
8
0
10
594.0
20
621.0
40
15.0
0
CIRCLE
8
0
10
594.0
20
588.0
40
15.0
0
CIRCLE
8
0
10
624.0
20
621.0
40
15.0
0
CIRCLE
8
0
10
624.0
20
588.0
40
15.0
0
CIRCLE
8
0
10
594.0
20
554.0
40
15.0
0
CIRCLE
8
0
10
594.0
20
520.0
40
15.0
0
CIRCLE
8
0
10
624.0
20
554.0
40
15.0
0
CIRCLE
8
0
10
624.0
20
520.0
40
15.0
0
CIRCLE
8
0
10
654.0
20
621.0
40
15.0
0
CIRCLE
8
0
10
654.0
20
588.0
40
15.0
0
CIRCLE
8
0
10
684.0
20
621.0
40
15.0
0
CIRCLE
8
0
10
684.0
20
588.0
40
15.0
0
CIRCLE
8
0
10
654.0
20
554.0
40
15.0
0
CIRCLE
8
0
10
654.0
20
520.0
40
15.0
0
CIRCLE
8
0
10
684.0
20
554.0
40
15.0
0
CIRCLE
8
0
10
684.0
20
520.0
40
15.0
0
CIRCLE
8
0
10
594.0
20
487.0
40
15.0
0
CIRCLE
8
0
10
594.0
20
453.0
40
15.0
0
CIRCLE
8
0
10
624.0
20
487.0
40
15.0
0
CIRCLE
8
0
10
624.0
20
453.0
40
15.0
0
CIRCLE
8
0
10
594.0
20
419.0
40
15.0
0
CIRCLE
8
0
10
594.0
20
385.0
40
15.0
0
CIRCLE
8
0
10
624.0
20
419.0
40
15.0
0
CIRCLE
8
0
10
624.0
20
385.0
40
15.0
0
CIRCLE
8
0
10
654.0
20
487.0
40
15.0
0
CIRCLE
8
0
10
654.0
20
453.0
40
15.0
0
CIRCLE
8
0
10
684.0
20
487.0
40
15.0
0
CIRCLE
8
0
10
684.0
20
453.0
40
15.0
0
CIRCLE
8
0
10
654.0
20
419.0
40
15.0
0
CIRCLE
8
0
10
654.0
20
385.0
40
15.0
0
CIRCLE
8
0
10
684.0
20
419.0
40
15.0
0
CIRCLE
8
0
10
684.0
20
385.0
40
15.0
0
CIRCLE
8
0
10
714.0
20
621.0
40
15.0
0
CIRCLE
8
0
10
714.0
20
588.0
40
15.0
0
CIRCLE
8
0
10
744.0
20
621.0
40
15.0
0
CIRCLE
8
0
10
744.0
20
588.0
40
15.0
0
CIRCLE
8
0
10
714.0
20
554.0
40
15.0
0
CIRCLE
8
0
10
714.0
20
520.0
40
15.0
0
CIRCLE
8
0
10
744.0
20
554.0
40
15.0
0
CIRCLE
8
0
10
744.0
20
520.0
40
15.0
0
CIRCLE
8
0
10
789.0
20
605.0
40
30.0
0
CIRCLE
8
0
10
789.0
20
537.0
40
30.0
0
CIRCLE
8
0
10
714.0
20
487.0
40
15.0
0
CIRCLE
8
0
10
714.0
20
453.0
40
15.0
0
CIRCLE
8
0
10
744.0
20
487.0
40
15.0
0
CIRCLE
8
0
10
744.0
20
453.0
40
15.0
0
CIRCLE
8
0
10
714.0
20
419.0
40
15.0
0
CIRCLE
8
0
10
714.0
20
385.0
40
15.0
0
CIRCLE
8
0
10
744.0
20
419.0
40
15.0
0
CIRCLE
8
0
10
744.0
20
385.0
40
15.0
0
CIRCLE
8
0
10
774.0
20
487.0
40
15.0
0
CIRCLE
8
0
10
774.0
20
453.0
40
15.0
0
CIRCLE
8
0
10
804.0
20
487.0
40
15.0
0
CIRCLE
8
0
10
804.0
20
453.0
40
15.0
0
CIRCLE
8
0
10
774.0
20
419.0
40
15.0
0
CIRCLE
8
0
10
774.0
20
385.0
40
15.0
0
CIRCLE
8
0
10
804.0
20
419.0
40
15.0
0
CIRCLE
8
0
10
804.0
20
385.0
40
15.0
0
CIRCLE
8
0
10
594.0
20
351.0
40
15.0
0
CIRCLE
8
0
10
594.0
20
318.0
40
15.0
0
CIRCLE
8
0
10
624.0
20
351.0
40
15.0
0
CIRCLE
8
0
10
624.0
20
318.0
40
15.0
0
CIRCLE
8
0
10
594.0
20
284.0
40
15.0
0
CIRCLE
8
0
10
594.0
20
250.0
40
15.0
0
CIRCLE
8
0
10
624.0
20
284.0
40
15.0
0
CIRCLE
8
0
10
624.0
20
250.0
40
15.0
0
CIRCLE
8
0
10
654.0
20
351.0
40
15.0
0
CIRCLE
8
0
10
654.0
20
318.0
40
15.0
0
CIRCLE
8
0
10
684.0
20
351.0
40
15.0
0
CIRCLE
8
0
10
684.0
20
318.0
40
15.0
0
CIRCLE
8
0
10
654.0
20
284.0
40
15.0
0
CIRCLE
8
0
10
654.0
20
250.0
40
15.0
0
CIRCLE
8
0
10
684.0
20
284.0
40
15.0
0
CIRCLE
8
0
10
684.0
20
250.0
40
15.0
0
CIRCLE
8
0
10
594.0
20
217.0
40
15.0
0
CIRCLE
8
0
10
594.0
20
183.0
40
15.0
0
CIRCLE
8
0
10
624.0
20
217.0
40
15.0
0
CIRCLE
8
0
10
624.0
20
183.0
40
15.0
0
CIRCLE
8
0
10
594.0
20
149.0
40
15.0
0
CIRCLE
8
0
10
594.0
20
115.0
40
15.0
0
CIRCLE
8
0
10
624.0
20
149.0
40
15.0
0
CIRCLE
8
0
10
624.0
20
115.0
40
15.0
0
CIRCLE
8
0
10
654.0
20
217.0
40
15.0
0
CIRCLE
8
0
10
654.0
20
183.0
40
15.0
0
CIRCLE
8
0
10
684.0
20
217.0
40
15.0
0
CIRCLE
8
0
10
684.0
20
183.0
40
15.0
0
CIRCLE
8
0
10
654.0
20
149.0
40
15.0
0
CIRCLE
8
0
10
654.0
20
115.0
40
15.0
0
CIRCLE
8
0
10
684.0
20
149.0
40
15.0
0
CIRCLE
8
0
10
684.0
20
115.0
40
15.0
0
CIRCLE
8
0
10
714.0
20
351.0
40
15.0
0
CIRCLE
8
0
10
714.0
20
318.0
40
15.0
0
CIRCLE
8
0
10
744.0
20
351.0
40
15.0
0
CIRCLE
8
0
10
744.0
20
318.0
40
15.0
0
CIRCLE
8
0
10
714.0
20
284.0
40
15.0
0
CIRCLE
8
0
10
714.0
20
250.0
40
15.0
0
CIRCLE
8
0
10
744.0
20
284.0
40
15.0
0
CIRCLE
8
0
10
744.0
20
250.0
40
15.0
0
CIRCLE
8
0
10
774.0
20
351.0
40
15.0
0
CIRCLE
8
0
10
774.0
20
318.0
40
15.0
0
CIRCLE
8
0
10
804.0
20
351.0
40
15.0
0
CIRCLE
8
0
10
804.0
20
318.0
40
15.0
0
CIRCLE
8
0
10
774.0
20
284.0
40
15.0
0
CIRCLE
8
0
10
774.0
20
250.0
40
15.0
0
CIRCLE
8
0
10
804.0
20
284.0
40
15.0
0
CIRCLE
8
0
10
804.0
20
250.0
40
15.0
0
CIRCLE
8
0
10
714.0
20
217.0
40
15.0
0
CIRCLE
8
0
10
714.0
20
183.0
40
15.0
0
CIRCLE
8
0
10
744.0
20
217.0
40
15.0
0
CIRCLE
8
0
10
744.0
20
183.0
40
15.0
0
CIRCLE
8
0
10
714.0
20
149.0
40
15.0
0
CIRCLE
8
0
10
714.0
20
115.0
40
15.0
0
CIRCLE
8
0
10
744.0
20
149.0
40
15.0
0
CIRCLE
8
0
10
744.0
20
115.0
40
15.0
0
CIRCLE
8
0
10
774.0
20
217.0
40
15.0
0
CIRCLE
8
0
10
774.0
20
183.0
40
15.0
0
CIRCLE
8
0
10
804.0
20
217.0
40
15.0
0
CIRCLE
8
0
10
804.0
20
183.0
40
15.0
0
CIRCLE
8
0
10
774.0
20
149.0
40
15.0
0
CIRCLE
8
0
10
774.0
20
115.0
40
15.0
0
CIRCLE
8
0
10
804.0
20
149.0
40
15.0
0
CIRCLE
8
0
10
804.0
20
115.0
40
15.0
0
CIRCLE
8
0
10
849.0
20
605.0
40
30.0
0
CIRCLE
8
0
10
849.0
20
537.0
40
30.0
0
CIRCLE
8
0
10
909.0
20
605.0
40
30.0
0
CIRCLE
8
0
10
894.0
20
554.0
40
15.0
0
CIRCLE
8
0
10
894.0
20
520.0
40
15.0
0
CIRCLE
8
0
10
924.0
20
554.0
40
15.0
0
CIRCLE
8
0
10
924.0
20
520.0
40
15.0
0
CIRCLE
8
0
10
834.0
20
487.0
40
15.0
0
CIRCLE
8
0
10
834.0
20
453.0
40
15.0
0
CIRCLE
8
0
10
864.0
20
487.0
40
15.0
0
CIRCLE
8
0
10
864.0
20
453.0
40
15.0
0
CIRCLE
8
0
10
834.0
20
419.0
40
15.0
0
CIRCLE
8
0
10
834.0
20
385.0
40
15.0
0
CIRCLE
8
0
10
864.0
20
419.0
40
15.0
0
CIRCLE
8
0
10
864.0
20
385.0
40
15.0
0
CIRCLE
8
0
10
894.0
20
487.0
40
15.0
0
CIRCLE
8
0
10
894.0
20
453.0
40
15.0
0
CIRCLE
8
0
10
924.0
20
487.0
40
15.0
0
CIRCLE
8
0
10
924.0
20
453.0
40
15.0
0
CIRCLE
8
0
10
894.0
20
419.0
40
15.0
0
CIRCLE
8
0
10
894.0
20
385.0
40
15.0
0
CIRCLE
8
0
10
924.0
20
419.0
40
15.0
0
CIRCLE
8
0
10
924.0
20
385.0
40
15.0
0
CIRCLE
8
0
10
954.0
20
621.0
40
15.0
0
CIRCLE
8
0
10
954.0
20
588.0
40
15.0
0
CIRCLE
8
0
10
984.0
20
621.0
40
15.0
0
CIRCLE
8
0
10
984.0
20
588.0
40
15.0
0
CIRCLE
8
0
10
954.0
20
554.0
40
15.0
0
CIRCLE
8
0
10
954.0
20
520.0
40
15.0
0
CIRCLE
8
0
10
984.0
20
554.0
40
15.0
0
CIRCLE
8
0
10
984.0
20
520.0
40
15.0
0
CIRCLE
8
0
10
1014.0
20
621.0
40
15.0
0
CIRCLE
8
0
10
1014.0
20
588.0
40
15.0
0
CIRCLE
8
0
10
1044.0
20
621.0
40
15.0
0
CIRCLE
8
0
10
1044.0
20
588.0
40
15.0
0
CIRCLE
8
0
10
1014.0
20
554.0
40
15.0
0
CIRCLE
8
0
10
1014.0
20
520.0
40
15.0
0
CIRCLE
8
0
10
1044.0
20
554.0
40
15.0
0
CIRCLE
8
0
10
1044.0
20
520.0
40
15.0
0
CIRCLE
8
0
10
954.0
20
487.0
40
15.0
0
CIRCLE
8
0
10
954.0
20
453.0
40
15.0
0
CIRCLE
8
0
10
984.0
20
487.0
40
15.0
0
CIRCLE
8
0
10
984.0
20
453.0
40
15.0
0
CIRCLE
8
0
10
954.0
20
419.0
40
15.0
0
CIRCLE
8
0
10
954.0
20
385.0
40
15.0
0
CIRCLE
8
0
10
984.0
20
419.0
40
15.0
0
CIRCLE
8
0
10
984.0
20
385.0
40
15.0
0
CIRCLE
8
0
10
1014.0
20
487.0
40
15.0
0
CIRCLE
8
0
10
1014.0
20
453.0
40
15.0
0
CIRCLE
8
0
10
1044.0
20
487.0
40
15.0
0
CIRCLE
8
0
10
1044.0
20
453.0
40
15.0
0
CIRCLE
8
0
10
1014.0
20
419.0
40
15.0
0
CIRCLE
8
0
10
1014.0
20
385.0
40
15.0
0
CIRCLE
8
0
10
1044.0
20
419.0
40
15.0
0
CIRCLE
8
0
10
1044.0
20
385.0
40
15.0
0
CIRCLE
8
0
10
834.0
20
351.0
40
15.0
0
CIRCLE
8
0
10
834.0
20
318.0
40
15.0
0
CIRCLE
8
0
10
864.0
20
351.0
40
15.0
0
CIRCLE
8
0
10
864.0
20
318.0
40
15.0
0
CIRCLE
8
0
10
834.0
20
284.0
40
15.0
0
CIRCLE
8
0
10
834.0
20
250.0
40
15.0
0
CIRCLE
8
0
10
864.0
20
284.0
40
15.0
0
CIRCLE
8
0
10
864.0
20
250.0
40
15.0
0
CIRCLE
8
0
10
894.0
20
351.0
40
15.0
0
CIRCLE
8
0
10
894.0
20
318.0
40
15.0
0
CIRCLE
8
0
10
924.0
20
351.0
40
15.0
0
CIRCLE
8
0
10
924.0
20
318.0
40
15.0
0
CIRCLE
8
0
10
894.0
20
284.0
40
15.0
0
CIRCLE
8
0
10
894.0
20
250.0
40
15.0
0
CIRCLE
8
0
10
924.0
20
284.0
40
15.0
0
CIRCLE
8
0
10
924.0
20
250.0
40
15.0
0
CIRCLE
8
0
10
834.0
20
217.0
40
15.0
0
CIRCLE
8
0
10
834.0
20
183.0
40
15.0
0
CIRCLE
8
0
10
864.0
20
217.0
40
15.0
0
CIRCLE
8
0
10
864.0
20
183.0
40
15.0
0
CIRCLE
8
0
10
834.0
20
149.0
40
15.0
0
CIRCLE
8
0
10
834.0
20
115.0
40
15.0
0
CIRCLE
8
0
10
864.0
20
149.0
40
15.0
0
CIRCLE
8
0
10
864.0
20
115.0
40
15.0
0
CIRCLE
8
0
10
894.0
20
217.0
40
15.0
0
CIRCLE
8
0
10
894.0
20
183.0
40
15.0
0
CIRCLE
8
0
10
924.0
20
217.0
40
15.0
0
CIRCLE
8
0
10
924.0
20
183.0
40
15.0
0
CIRCLE
8
0
10
894.0
20
149.0
40
15.0
0
CIRCLE
8
0
10
894.0
20
115.0
40
15.0
0
CIRCLE
8
0
10
924.0
20
149.0
40
15.0
0
CIRCLE
8
0
10
924.0
20
115.0
40
15.0
0
CIRCLE
8
0
10
954.0
20
351.0
40
15.0
0
CIRCLE
8
0
10
954.0
20
318.0
40
15.0
0
CIRCLE
8
0
10
984.0
20
351.0
40
15.0
0
CIRCLE
8
0
10
984.0
20
318.0
40
15.0
0
CIRCLE
8
0
10
954.0
20
284.0
40
15.0
0
CIRCLE
8
0
10
954.0
20
250.0
40
15.0
0
CIRCLE
8
0
10
984.0
20
284.0
40
15.0
0
CIRCLE
8
0
10
984.0
20
250.0
40
15.0
0
CIRCLE
8
0
10
1014.0
20
351.0
40
15.0
0
CIRCLE
8
0
10
1014.0
20
318.0
40
15.0
0
CIRCLE
8
0
10
1044.0
20
351.0
40
15.0
0
CIRCLE
8
0
10
1044.0
20
318.0
40
15.0
0
CIRCLE
8
0
10
1014.0
20
284.0
40
15.0
0
CIRCLE
8
0
10
1014.0
20
250.0
40
15.0
0
CIRCLE
8
0
10
1044.0
20
284.0
40
15.0
0
CIRCLE
8
0
10
1044.0
20
250.0
40
15.0
0
CIRCLE
8
0
10
954.0
20
217.0
40
15.0
0
CIRCLE
8
0
10
954.0
20
183.0
40
15.0
0
CIRCLE
8
0
10
984.0
20
217.0
40
15.0
0
CIRCLE
8
0
10
984.0
20
183.0
40
15.0
0
CIRCLE
8
0
10
954.0
20
149.0
40
15.0
0
CIRCLE
8
0
10
954.0
20
115.0
40
15.0
0
CIRCLE
8
0
10
984.0
20
149.0
40
15.0
0
CIRCLE
8
0
10
984.0
20
115.0
40
15.0
0
CIRCLE
8
0
10
1014.0
20
217.0
40
15.0
0
CIRCLE
8
0
10
1014.0
20
183.0
40
15.0
0
CIRCLE
8
0
10
1044.0
20
217.0
40
15.0
0
CIRCLE
8
0
10
1044.0
20
183.0
40
15.0
0
CIRCLE
8
0
10
1014.0
20
149.0
40
15.0
0
CIRCLE
8
0
10
1014.0
20
115.0
40
15.0
0
CIRCLE
8
0
10
1044.0
20
149.0
40
15.0
0
CIRCLE
8
0
10
1044.0
20
115.0
40
15.0
0
CIRCLE
8
0
10
1074.0
20
1127.0
40
15.0
0
CIRCLE
8
0
10
1089.0
20
1077.0
40
30.0
0
CIRCLE
8
0
10
1134.0
20
1093.0
40
15.0
0
CIRCLE
8
0
10
1134.0
20
1060.0
40
15.0
0
CIRCLE
8
0
10
1164.0
20
1093.0
40
15.0
0
CIRCLE
8
0
10
1194.0
20
1027.0
40
15.0
0
CIRCLE
8
0
10
1194.0
20
993.0
40
15.0
0
CIRCLE
8
0
10
1224.0
20
993.0
40
15.0
0
CIRCLE
8
0
10
1254.0
20
993.0
40
15.0
0
CIRCLE
8
0
10
1284.0
20
1027.0
40
15.0
0
CIRCLE
8
0
10
1119.0
20
705.0
40
60.0
0
CIRCLE
8
0
10
1239.0
20
705.0
40
60.0
0
CIRCLE
8
0
10
1314.0
20
993.0
40
15.0
0
CIRCLE
8
0
10
1374.0
20
1027.0
40
15.0
0
CIRCLE
8
0
10
1374.0
20
993.0
40
15.0
0
CIRCLE
8
0
10
1404.0
20
1027.0
40
15.0
0
CIRCLE
8
0
10
1404.0
20
993.0
40
15.0
0
CIRCLE
8
0
10
1374.0
20
959.0
40
15.0
0
CIRCLE
8
0
10
1419.0
20
773.0
40
120.0
0
CIRCLE
8
0
10
1074.0
20
621.0
40
15.0
0
CIRCLE
8
0
10
1074.0
20
588.0
40
15.0
0
CIRCLE
8
0
10
1104.0
20
621.0
40
15.0
0
CIRCLE
8
0
10
1104.0
20
588.0
40
15.0
0
CIRCLE
8
0
10
1074.0
20
554.0
40
15.0
0
CIRCLE
8
0
10
1074.0
20
520.0
40
15.0
0
CIRCLE
8
0
10
1104.0
20
554.0
40
15.0
0
CIRCLE
8
0
10
1104.0
20
520.0
40
15.0
0
CIRCLE
8
0
10
1134.0
20
621.0
40
15.0
0
CIRCLE
8
0
10
1134.0
20
588.0
40
15.0
0
CIRCLE
8
0
10
1164.0
20
621.0
40
15.0
0
CIRCLE
8
0
10
1164.0
20
588.0
40
15.0
0
CIRCLE
8
0
10
1134.0
20
554.0
40
15.0
0
CIRCLE
8
0
10
1134.0
20
520.0
40
15.0
0
CIRCLE
8
0
10
1164.0
20
554.0
40
15.0
0
CIRCLE
8
0
10
1164.0
20
520.0
40
15.0
0
CIRCLE
8
0
10
1074.0
20
487.0
40
15.0
0
CIRCLE
8
0
10
1074.0
20
453.0
40
15.0
0
CIRCLE
8
0
10
1104.0
20
487.0
40
15.0
0
CIRCLE
8
0
10
1104.0
20
453.0
40
15.0
0
CIRCLE
8
0
10
1074.0
20
419.0
40
15.0
0
CIRCLE
8
0
10
1074.0
20
385.0
40
15.0
0
CIRCLE
8
0
10
1104.0
20
419.0
40
15.0
0
CIRCLE
8
0
10
1104.0
20
385.0
40
15.0
0
CIRCLE
8
0
10
1134.0
20
487.0
40
15.0
0
CIRCLE
8
0
10
1134.0
20
453.0
40
15.0
0
CIRCLE
8
0
10
1164.0
20
487.0
40
15.0
0
CIRCLE
8
0
10
1164.0
20
453.0
40
15.0
0
CIRCLE
8
0
10
1134.0
20
419.0
40
15.0
0
CIRCLE
8
0
10
1134.0
20
385.0
40
15.0
0
CIRCLE
8
0
10
1164.0
20
419.0
40
15.0
0
CIRCLE
8
0
10
1164.0
20
385.0
40
15.0
0
CIRCLE
8
0
10
1194.0
20
621.0
40
15.0
0
CIRCLE
8
0
10
1194.0
20
588.0
40
15.0
0
CIRCLE
8
0
10
1194.0
20
554.0
40
15.0
0
CIRCLE
8
0
10
1194.0
20
520.0
40
15.0
0
CIRCLE
8
0
10
1224.0
20
554.0
40
15.0
0
CIRCLE
8
0
10
1224.0
20
520.0
40
15.0
0
CIRCLE
8
0
10
1194.0
20
487.0
40
15.0
0
CIRCLE
8
0
10
1194.0
20
453.0
40
15.0
0
CIRCLE
8
0
10
1224.0
20
487.0
40
15.0
0
CIRCLE
8
0
10
1224.0
20
453.0
40
15.0
0
CIRCLE
8
0
10
1194.0
20
419.0
40
15.0
0
CIRCLE
8
0
10
1194.0
20
385.0
40
15.0
0
CIRCLE
8
0
10
1224.0
20
419.0
40
15.0
0
CIRCLE
8
0
10
1224.0
20
385.0
40
15.0
0
CIRCLE
8
0
10
1254.0
20
487.0
40
15.0
0
CIRCLE
8
0
10
1254.0
20
453.0
40
15.0
0
CIRCLE
8
0
10
1284.0
20
453.0
40
15.0
0
CIRCLE
8
0
10
1254.0
20
419.0
40
15.0
0
CIRCLE
8
0
10
1254.0
20
385.0
40
15.0
0
CIRCLE
8
0
10
1284.0
20
419.0
40
15.0
0
CIRCLE
8
0
10
1284.0
20
385.0
40
15.0
0
CIRCLE
8
0
10
1074.0
20
351.0
40
15.0
0
CIRCLE
8
0
10
1074.0
20
318.0
40
15.0
0
CIRCLE
8
0
10
1104.0
20
351.0
40
15.0
0
CIRCLE
8
0
10
1104.0
20
318.0
40
15.0
0
CIRCLE
8
0
10
1074.0
20
284.0
40
15.0
0
CIRCLE
8
0
10
1074.0
20
250.0
40
15.0
0
CIRCLE
8
0
10
1104.0
20
284.0
40
15.0
0
CIRCLE
8
0
10
1104.0
20
250.0
40
15.0
0
CIRCLE
8
0
10
1134.0
20
351.0
40
15.0
0
CIRCLE
8
0
10
1134.0
20
318.0
40
15.0
0
CIRCLE
8
0
10
1164.0
20
351.0
40
15.0
0
CIRCLE
8
0
10
1164.0
20
318.0
40
15.0
0
CIRCLE
8
0
10
1134.0
20
284.0
40
15.0
0
CIRCLE
8
0
10
1134.0
20
250.0
40
15.0
0
CIRCLE
8
0
10
1164.0
20
284.0
40
15.0
0
CIRCLE
8
0
10
1074.0
20
217.0
40
15.0
0
CIRCLE
8
0
10
1074.0
20
183.0
40
15.0
0
CIRCLE
8
0
10
1104.0
20
217.0
40
15.0
0
CIRCLE
8
0
10
1104.0
20
183.0
40
15.0
0
CIRCLE
8
0
10
1074.0
20
149.0
40
15.0
0
CIRCLE
8
0
10
1074.0
20
115.0
40
15.0
0
CIRCLE
8
0
10
1104.0
20
149.0
40
15.0
0
CIRCLE
8
0
10
1104.0
20
115.0
40
15.0
0
CIRCLE
8
0
10
1134.0
20
217.0
40
15.0
0
CIRCLE
8
0
10
1134.0
20
149.0
40
15.0
0
CIRCLE
8
0
10
1134.0
20
115.0
40
15.0
0
CIRCLE
8
0
10
1164.0
20
115.0
40
15.0
0
CIRCLE
8
0
10
1194.0
20
351.0
40
15.0
0
CIRCLE
8
0
10
1194.0
20
318.0
40
15.0
0
CIRCLE
8
0
10
1224.0
20
351.0
40
15.0
0
CIRCLE
8
0
10
1224.0
20
318.0
40
15.0
0
CIRCLE
8
0
10
1194.0
20
284.0
40
15.0
0
CIRCLE
8
0
10
1194.0
20
250.0
40
15.0
0
CIRCLE
8
0
10
1224.0
20
284.0
40
15.0
0
CIRCLE
8
0
10
1224.0
20
250.0
40
15.0
0
CIRCLE
8
0
10
1254.0
20
351.0
40
15.0
0
CIRCLE
8
0
10
1254.0
20
318.0
40
15.0
0
CIRCLE
8
0
10
1284.0
20
351.0
40
15.0
0
CIRCLE
8
0
10
1284.0
20
318.0
40
15.0
0
CIRCLE
8
0
10
1254.0
20
284.0
40
15.0
0
CIRCLE
8
0
10
1254.0
20
250.0
40
15.0
0
CIRCLE
8
0
10
1284.0
20
284.0
40
15.0
0
CIRCLE
8
0
10
1284.0
20
250.0
40
15.0
0
CIRCLE
8
0
10
1194.0
20
217.0
40
15.0
0
CIRCLE
8
0
10
1194.0
20
183.0
40
15.0
0
CIRCLE
8
0
10
1224.0
20
217.0
40
15.0
0
CIRCLE
8
0
10
1224.0
20
183.0
40
15.0
0
CIRCLE
8
0
10
1224.0
20
149.0
40
15.0
0
CIRCLE
8
0
10
1224.0
20
115.0
40
15.0
0
CIRCLE
8
0
10
1254.0
20
217.0
40
15.0
0
CIRCLE
8
0
10
1254.0
20
183.0
40
15.0
0
CIRCLE
8
0
10
1284.0
20
217.0
40
15.0
0
CIRCLE
8
0
10
1284.0
20
183.0
40
15.0
0
CIRCLE
8
0
10
1254.0
20
149.0
40
15.0
0
CIRCLE
8
0
10
1254.0
20
115.0
40
15.0
0
CIRCLE
8
0
10
1284.0
20
149.0
40
15.0
0
CIRCLE
8
0
10
1284.0
20
115.0
40
15.0
0
CIRCLE
8
0
10
1314.0
20
217.0
40
15.0
0
CIRCLE
8
0
10
1314.0
20
183.0
40
15.0
0
CIRCLE
8
0
10
1344.0
20
183.0
40
15.0
0
CIRCLE
8
0
10
1314.0
20
149.0
40
15.0
0
CIRCLE
8
0
10
1314.0
20
115.0
40
15.0
0
CIRCLE
8
0
10
1344.0
20
149.0
40
15.0
0
CIRCLE
8
0
10
1344.0
20
115.0
40
15.0
0
CIRCLE
8
0
10
1374.0
20
115.0
40
15.0
0
CIRCLE
8
0
10
1584.0
20
1060.0
40
15.0
0
CIRCLE
8
0
10
1614.0
20
1093.0
40
15.0
0
CIRCLE
8
0
10
1614.0
20
1060.0
40
15.0
0
CIRCLE
8
0
10
1644.0
20
1093.0
40
15.0
0
CIRCLE
8
0
10
1644.0
20
1060.0
40
15.0
0
CIRCLE
8
0
10
1674.0
20
1161.0
40
15.0
0
CIRCLE
8
0
10
1674.0
20
1127.0
40
15.0
0
CIRCLE
8
0
10
1704.0
20
1161.0
40
15.0
0
CIRCLE
8
0
10
1704.0
20
1127.0
40
15.0
0
CIRCLE
8
0
10
1674.0
20
1093.0
40
15.0
0
CIRCLE
8
0
10
1674.0
20
1060.0
40
15.0
0
CIRCLE
8
0
10
1704.0
20
1093.0
40
15.0
0
CIRCLE
8
0
10
1704.0
20
1060.0
40
15.0
0
CIRCLE
8
0
10
1734.0
20
1161.0
40
15.0
0
CIRCLE
8
0
10
1734.0
20
1127.0
40
15.0
0
CIRCLE
8
0
10
1764.0
20
1161.0
40
15.0
0
CIRCLE
8
0
10
1764.0
20
1127.0
40
15.0
0
CIRCLE
8
0
10
1734.0
20
1093.0
40
15.0
0
CIRCLE
8
0
10
1734.0
20
1060.0
40
15.0
0
CIRCLE
8
0
10
1764.0
20
1093.0
40
15.0
0
CIRCLE
8
0
10
1764.0
20
1060.0
40
15.0
0
CIRCLE
8
0
10
1674.0
20
1027.0
40
15.0
0
CIRCLE
8
0
10
1704.0
20
1027.0
40
15.0
0
CIRCLE
8
0
10
1704.0
20
993.0
40
15.0
0
CIRCLE
8
0
10
1674.0
20
925.0
40
15.0
0
CIRCLE
8
0
10
1704.0
20
925.0
40
15.0
0
CIRCLE
8
0
10
1734.0
20
1027.0
40
15.0
0
CIRCLE
8
0
10
1734.0
20
993.0
40
15.0
0
CIRCLE
8
0
10
1764.0
20
1027.0
40
15.0
0
CIRCLE
8
0
10
1764.0
20
993.0
40
15.0
0
CIRCLE
8
0
10
1734.0
20
925.0
40
15.0
0
CIRCLE
8
0
10
1764.0
20
925.0
40
15.0
0
CIRCLE
8
0
10
1569.0
20
807.0
40
30.0
0
CIRCLE
8
0
10
1629.0
20
807.0
40
30.0
0
CIRCLE
8
0
10
1599.0
20
705.0
40
60.0
0
CIRCLE
8
0
10
1674.0
20
858.0
40
15.0
0
CIRCLE
8
0
10
1704.0
20
891.0
40
15.0
0
CIRCLE
8
0
10
1704.0
20
858.0
40
15.0
0
CIRCLE
8
0
10
1689.0
20
807.0
40
30.0
0
CIRCLE
8
0
10
1734.0
20
891.0
40
15.0
0
CIRCLE
8
0
10
1734.0
20
858.0
40
15.0
0
CIRCLE
8
0
10
1764.0
20
891.0
40
15.0
0
CIRCLE
8
0
10
1764.0
20
858.0
40
15.0
0
CIRCLE
8
0
10
1749.0
20
807.0
40
30.0
0
CIRCLE
8
0
10
1719.0
20
705.0
40
60.0
0
CIRCLE
8
0
10
1794.0
20
1161.0
40
15.0
0
CIRCLE
8
0
10
1794.0
20
1127.0
40
15.0
0
CIRCLE
8
0
10
1824.0
20
1161.0
40
15.0
0
CIRCLE
8
0
10
1824.0
20
1127.0
40
15.0
0
CIRCLE
8
0
10
1794.0
20
1093.0
40
15.0
0
CIRCLE
8
0
10
1794.0
20
1060.0
40
15.0
0
CIRCLE
8
0
10
1824.0
20
1093.0
40
15.0
0
CIRCLE
8
0
10
1824.0
20
1060.0
40
15.0
0
CIRCLE
8
0
10
1854.0
20
1161.0
40
15.0
0
CIRCLE
8
0
10
1854.0
20
1127.0
40
15.0
0
CIRCLE
8
0
10
1884.0
20
1161.0
40
15.0
0
CIRCLE
8
0
10
1884.0
20
1127.0
40
15.0
0
CIRCLE
8
0
10
1854.0
20
1093.0
40
15.0
0
CIRCLE
8
0
10
1854.0
20
1060.0
40
15.0
0
CIRCLE
8
0
10
1884.0
20
1093.0
40
15.0
0
CIRCLE
8
0
10
1884.0
20
1060.0
40
15.0
0
CIRCLE
8
0
10
1794.0
20
1027.0
40
15.0
0
CIRCLE
8
0
10
1794.0
20
993.0
40
15.0
0
CIRCLE
8
0
10
1824.0
20
1027.0
40
15.0
0
CIRCLE
8
0
10
1824.0
20
993.0
40
15.0
0
CIRCLE
8
0
10
1809.0
20
942.0
40
30.0
0
CIRCLE
8
0
10
1854.0
20
1027.0
40
15.0
0
CIRCLE
8
0
10
1854.0
20
993.0
40
15.0
0
CIRCLE
8
0
10
1884.0
20
1027.0
40
15.0
0
CIRCLE
8
0
10
1884.0
20
993.0
40
15.0
0
CIRCLE
8
0
10
1854.0
20
959.0
40
15.0
0
CIRCLE
8
0
10
1854.0
20
925.0
40
15.0
0
CIRCLE
8
0
10
1884.0
20
959.0
40
15.0
0
CIRCLE
8
0
10
1884.0
20
925.0
40
15.0
0
CIRCLE
8
0
10
1914.0
20
1161.0
40
15.0
0
CIRCLE
8
0
10
1914.0
20
1127.0
40
15.0
0
CIRCLE
8
0
10
1944.0
20
1161.0
40
15.0
0
CIRCLE
8
0
10
1944.0
20
1127.0
40
15.0
0
CIRCLE
8
0
10
1914.0
20
1093.0
40
15.0
0
CIRCLE
8
0
10
1914.0
20
1060.0
40
15.0
0
CIRCLE
8
0
10
1944.0
20
1093.0
40
15.0
0
CIRCLE
8
0
10
1944.0
20
1060.0
40
15.0
0
CIRCLE
8
0
10
1974.0
20
1161.0
40
15.0
0
CIRCLE
8
0
10
1974.0
20
1127.0
40
15.0
0
CIRCLE
8
0
10
2004.0
20
1161.0
40
15.0
0
CIRCLE
8
0
10
2004.0
20
1127.0
40
15.0
0
CIRCLE
8
0
10
1974.0
20
1093.0
40
15.0
0
CIRCLE
8
0
10
1974.0
20
1060.0
40
15.0
0
CIRCLE
8
0
10
2004.0
20
1093.0
40
15.0
0
CIRCLE
8
0
10
2004.0
20
1060.0
40
15.0
0
CIRCLE
8
0
10
1914.0
20
1027.0
40
15.0
0
CIRCLE
8
0
10
1914.0
20
993.0
40
15.0
0
CIRCLE
8
0
10
1944.0
20
1027.0
40
15.0
0
CIRCLE
8
0
10
1944.0
20
993.0
40
15.0
0
CIRCLE
8
0
10
1914.0
20
959.0
40
15.0
0
CIRCLE
8
0
10
1914.0
20
925.0
40
15.0
0
CIRCLE
8
0
10
1944.0
20
959.0
40
15.0
0
CIRCLE
8
0
10
1974.0
20
1027.0
40
15.0
0
CIRCLE
8
0
10
1974.0
20
993.0
40
15.0
0
CIRCLE
8
0
10
2004.0
20
1027.0
40
15.0
0
CIRCLE
8
0
10
2004.0
20
993.0
40
15.0
0
CIRCLE
8
0
10
1974.0
20
959.0
40
15.0
0
CIRCLE
8
0
10
1974.0
20
925.0
40
15.0
0
CIRCLE
8
0
10
2004.0
20
959.0
40
15.0
0
CIRCLE
8
0
10
1794.0
20
891.0
40
15.0
0
CIRCLE
8
0
10
1794.0
20
858.0
40
15.0
0
CIRCLE
8
0
10
1824.0
20
891.0
40
15.0
0
CIRCLE
8
0
10
1824.0
20
858.0
40
15.0
0
CIRCLE
8
0
10
1809.0
20
807.0
40
30.0
0
CIRCLE
8
0
10
1854.0
20
891.0
40
15.0
0
CIRCLE
8
0
10
1854.0
20
858.0
40
15.0
0
CIRCLE
8
0
10
1884.0
20
891.0
40
15.0
0
CIRCLE
8
0
10
1884.0
20
858.0
40
15.0
0
CIRCLE
8
0
10
1869.0
20
807.0
40
30.0
0
CIRCLE
8
0
10
1839.0
20
705.0
40
60.0
0
CIRCLE
8
0
10
1914.0
20
891.0
40
15.0
0
CIRCLE
8
0
10
1914.0
20
858.0
40
15.0
0
CIRCLE
8
0
10
1944.0
20
891.0
40
15.0
0
CIRCLE
8
0
10
1944.0
20
858.0
40
15.0
0
CIRCLE
8
0
10
1929.0
20
807.0
40
30.0
0
CIRCLE
8
0
10
1974.0
20
891.0
40
15.0
0
CIRCLE
8
0
10
1974.0
20
858.0
40
15.0
0
CIRCLE
8
0
10
2004.0
20
891.0
40
15.0
0
CIRCLE
8
0
10
2004.0
20
858.0
40
15.0
0
CIRCLE
8
0
10
1974.0
20
824.0
40
15.0
0
CIRCLE
8
0
10
1974.0
20
790.0
40
15.0
0
CIRCLE
8
0
10
2004.0
20
824.0
40
15.0
0
CIRCLE
8
0
10
2004.0
20
790.0
40
15.0
0
CIRCLE
8
0
10
1959.0
20
705.0
40
60.0
0
ENDSEC
0
EOF
