0
SECTION
2
ENTITIES
0
CIRCLE
8
0
10
12.5
20
558.666667
40
6.25
0
CIRCLE
8
0
10
12.5
20
583.666667
40
6.25
0
CIRCLE
8
0
10
1130.5
20
558.666667
40
6.25
0
CIRCLE
8
0
10
1130.5
20
583.666667
40
6.25
0
LINE
8
0
10
6.25
20
558.666667
11
6.25
21
583.666667
0
LINE
8
0
10
18.75
20
558.666667
11
18.75
21
583.666667
0
LINE
8
0
10
1124.25
20
558.666667
11
1124.25
21
583.666667
0
LINE
8
0
10
1136.75
20
558.666667
11
1136.75
21
583.666667
0
LINE
8
0
10
0
20
0
11
1143
21
0
0
LINE
8
0
10
1143
20
0
11
1143
21
838
0
LINE
8
0
10
1143
20
838
11
0
21
838
0
LINE
8
0
10
0
20
838
11
0
21
0
0
CIRCLE
8
0
10
12.5
20
56.143955
40
6.25
0
CIRCLE
8
0
10
1130.5
20
56.143955
40
6.25
0
CIRCLE
8
0
10
12.5
20
781.856045
40
6.25
0
CIRCLE
8
0
10
1130.5
20
781.856045
40
6.25
0
CIRCLE
8
0
10
32.973945
20
716.59901
40
8.258729
0
CIRCLE
8
0
10
50.060969
20
716.59901
40
8.543512
0
CIRCLE
8
0
10
50.060969
20
697.233715
40
8.543512
0
CIRCLE
8
0
10
32.973945
20
677.868421
40
8.258729
0
CIRCLE
8
0
10
50.060969
20
677.868421
40
8.543512
0
CIRCLE
8
0
10
84.235018
20
716.59901
40
8.543512
0
CIRCLE
8
0
10
84.235018
20
697.233715
40
8.543512
0
CIRCLE
8
0
10
67.147994
20
677.868421
40
8.543512
0
CIRCLE
8
0
10
84.235018
20
677.868421
40
8.543512
0
CIRCLE
8
0
10
101.322043
20
716.59901
40
8.543512
0
CIRCLE
8
0
10
101.322043
20
697.233715
40
8.543512
0
CIRCLE
8
0
10
118.409067
20
716.59901
40
8.543512
0
CIRCLE
8
0
10
118.409067
20
697.233715
40
8.543512
0
CIRCLE
8
0
10
101.322043
20
677.868421
40
8.543512
0
CIRCLE
8
0
10
118.409067
20
677.868421
40
8.543512
0
CIRCLE
8
0
10
118.409067
20
659.072694
40
8.543512
0
CIRCLE
8
0
10
135.496092
20
716.59901
40
8.543512
0
CIRCLE
8
0
10
135.496092
20
697.233715
40
8.543512
0
CIRCLE
8
0
10
152.583116
20
716.59901
40
8.543512
0
CIRCLE
8
0
10
152.583116
20
697.233715
40
8.543512
0
CIRCLE
8
0
10
135.496092
20
677.868421
40
8.543512
0
CIRCLE
8
0
10
135.496092
20
659.072694
40
8.543512
0
CIRCLE
8
0
10
152.583116
20
677.868421
40
8.543512
0
CIRCLE
8
0
10
152.583116
20
659.072694
40
8.543512
0
CIRCLE
8
0
10
169.670141
20
716.59901
40
8.543512
0
CIRCLE
8
0
10
169.670141
20
697.233715
40
8.543512
0
CIRCLE
8
0
10
186.757165
20
716.59901
40
8.543512
0
CIRCLE
8
0
10
169.670141
20
677.868421
40
8.543512
0
CIRCLE
8
0
10
169.670141
20
659.072694
40
8.543512
0
CIRCLE
8
0
10
186.757165
20
677.868421
40
8.543512
0
CIRCLE
8
0
10
186.757165
20
659.072694
40
8.543512
0
CIRCLE
8
0
10
203.84419
20
677.868421
40
8.543512
0
CIRCLE
8
0
10
203.84419
20
659.072694
40
8.543512
0
CIRCLE
8
0
10
220.931214
20
677.868421
40
8.543512
0
CIRCLE
8
0
10
220.931214
20
659.072694
40
8.543512
0
CIRCLE
8
0
10
255.105263
20
716.59901
40
8.543512
0
CIRCLE
8
0
10
255.105263
20
697.233715
40
8.543512
0
CIRCLE
8
0
10
238.018239
20
677.868421
40
8.543512
0
CIRCLE
8
0
10
238.018239
20
659.072694
40
8.543512
0
CIRCLE
8
0
10
255.105263
20
677.868421
40
8.543512
0
CIRCLE
8
0
10
255.105263
20
659.072694
40
8.543512
0
CIRCLE
8
0
10
280.7358
20
706.346795
40
17.087024
0
CIRCLE
8
0
10
272.192288
20
677.868421
40
8.543512
0
CIRCLE
8
0
10
272.192288
20
659.072694
40
8.543512
0
CIRCLE
8
0
10
289.279312
20
677.868421
40
8.543512
0
CIRCLE
8
0
10
289.279312
20
659.072694
40
8.543512
0
CIRCLE
8
0
10
195.300677
20
456.876238
40
34.174049
0
CIRCLE
8
0
10
263.648775
20
456.876238
40
34.174049
0
CIRCLE
8
0
10
59.174049
20
380.554195
40
33.889265
0
CIRCLE
8
0
10
42.087024
20
322.458312
40
16.802241
0
CIRCLE
8
0
10
42.087024
20
284.29729
40
16.802241
0
CIRCLE
8
0
10
109.865555
20
399.919489
40
17.087024
0
CIRCLE
8
0
10
118.409067
20
370.871548
40
8.543512
0
CIRCLE
8
0
10
144.039604
20
399.919489
40
17.087024
0
CIRCLE
8
0
10
135.496092
20
370.871548
40
8.543512
0
CIRCLE
8
0
10
152.583116
20
370.871548
40
8.543512
0
CIRCLE
8
0
10
152.583116
20
351.506253
40
8.543512
0
CIRCLE
8
0
10
59.174049
20
226.770974
40
33.889265
0
CIRCLE
8
0
10
32.973945
20
178.927306
40
8.258729
0
CIRCLE
8
0
10
32.973945
20
159.562011
40
8.258729
0
CIRCLE
8
0
10
50.060969
20
159.562011
40
8.543512
0
CIRCLE
8
0
10
42.087024
20
130.51407
40
16.802241
0
CIRCLE
8
0
10
178.213653
20
399.919489
40
17.087024
0
CIRCLE
8
0
10
212.387702
20
399.919489
40
17.087024
0
CIRCLE
8
0
10
203.84419
20
370.871548
40
8.543512
0
CIRCLE
8
0
10
203.84419
20
351.506253
40
8.543512
0
CIRCLE
8
0
10
220.931214
20
370.871548
40
8.543512
0
CIRCLE
8
0
10
220.931214
20
313.345232
40
8.543512
0
CIRCLE
8
0
10
203.84419
20
293.979937
40
8.543512
0
CIRCLE
8
0
10
203.84419
20
274.614643
40
8.543512
0
CIRCLE
8
0
10
220.931214
20
293.979937
40
8.543512
0
CIRCLE
8
0
10
220.931214
20
274.614643
40
8.543512
0
CIRCLE
8
0
10
238.018239
20
409.032569
40
8.543512
0
CIRCLE
8
0
10
238.018239
20
390.236842
40
8.543512
0
CIRCLE
8
0
10
255.105263
20
409.032569
40
8.543512
0
CIRCLE
8
0
10
255.105263
20
390.236842
40
8.543512
0
CIRCLE
8
0
10
238.018239
20
370.871548
40
8.543512
0
CIRCLE
8
0
10
238.018239
20
351.506253
40
8.543512
0
CIRCLE
8
0
10
255.105263
20
370.871548
40
8.543512
0
CIRCLE
8
0
10
255.105263
20
351.506253
40
8.543512
0
CIRCLE
8
0
10
272.192288
20
409.032569
40
8.543512
0
CIRCLE
8
0
10
272.192288
20
390.236842
40
8.543512
0
CIRCLE
8
0
10
289.279312
20
409.032569
40
8.543512
0
CIRCLE
8
0
10
289.279312
20
390.236842
40
8.543512
0
CIRCLE
8
0
10
272.192288
20
370.871548
40
8.543512
0
CIRCLE
8
0
10
272.192288
20
351.506253
40
8.543512
0
CIRCLE
8
0
10
289.279312
20
370.871548
40
8.543512
0
CIRCLE
8
0
10
289.279312
20
351.506253
40
8.543512
0
CIRCLE
8
0
10
238.018239
20
332.710526
40
8.543512
0
CIRCLE
8
0
10
238.018239
20
313.345232
40
8.543512
0
CIRCLE
8
0
10
255.105263
20
332.710526
40
8.543512
0
CIRCLE
8
0
10
255.105263
20
313.345232
40
8.543512
0
CIRCLE
8
0
10
238.018239
20
293.979937
40
8.543512
0
CIRCLE
8
0
10
238.018239
20
274.614643
40
8.543512
0
CIRCLE
8
0
10
255.105263
20
293.979937
40
8.543512
0
CIRCLE
8
0
10
255.105263
20
274.614643
40
8.543512
0
CIRCLE
8
0
10
272.192288
20
332.710526
40
8.543512
0
CIRCLE
8
0
10
272.192288
20
313.345232
40
8.543512
0
CIRCLE
8
0
10
289.279312
20
332.710526
40
8.543512
0
CIRCLE
8
0
10
289.279312
20
313.345232
40
8.543512
0
CIRCLE
8
0
10
272.192288
20
293.979937
40
8.543512
0
CIRCLE
8
0
10
272.192288
20
274.614643
40
8.543512
0
CIRCLE
8
0
10
289.279312
20
293.979937
40
8.543512
0
CIRCLE
8
0
10
289.279312
20
274.614643
40
8.543512
0
CIRCLE
8
0
10
186.757165
20
236.453622
40
8.543512
0
CIRCLE
8
0
10
169.670141
20
197.723033
40
8.543512
0
CIRCLE
8
0
10
186.757165
20
217.088327
40
8.543512
0
CIRCLE
8
0
10
186.757165
20
197.723033
40
8.543512
0
CIRCLE
8
0
10
203.84419
20
255.249349
40
8.543512
0
CIRCLE
8
0
10
203.84419
20
236.453622
40
8.543512
0
CIRCLE
8
0
10
220.931214
20
255.249349
40
8.543512
0
CIRCLE
8
0
10
220.931214
20
236.453622
40
8.543512
0
CIRCLE
8
0
10
203.84419
20
217.088327
40
8.543512
0
CIRCLE
8
0
10
203.84419
20
197.723033
40
8.543512
0
CIRCLE
8
0
10
220.931214
20
217.088327
40
8.543512
0
CIRCLE
8
0
10
220.931214
20
197.723033
40
8.543512
0
CIRCLE
8
0
10
169.670141
20
178.927306
40
8.543512
0
CIRCLE
8
0
10
169.670141
20
159.562011
40
8.543512
0
CIRCLE
8
0
10
186.757165
20
178.927306
40
8.543512
0
CIRCLE
8
0
10
186.757165
20
159.562011
40
8.543512
0
CIRCLE
8
0
10
169.670141
20
140.196717
40
8.543512
0
CIRCLE
8
0
10
169.670141
20
120.831423
40
8.543512
0
CIRCLE
8
0
10
186.757165
20
140.196717
40
8.543512
0
CIRCLE
8
0
10
186.757165
20
120.831423
40
8.543512
0
CIRCLE
8
0
10
203.84419
20
178.927306
40
8.543512
0
CIRCLE
8
0
10
203.84419
20
159.562011
40
8.543512
0
CIRCLE
8
0
10
220.931214
20
178.927306
40
8.543512
0
CIRCLE
8
0
10
220.931214
20
159.562011
40
8.543512
0
CIRCLE
8
0
10
203.84419
20
140.196717
40
8.543512
0
CIRCLE
8
0
10
203.84419
20
120.831423
40
8.543512
0
CIRCLE
8
0
10
220.931214
20
140.196717
40
8.543512
0
CIRCLE
8
0
10
220.931214
20
120.831423
40
8.543512
0
CIRCLE
8
0
10
238.018239
20
255.249349
40
8.543512
0
CIRCLE
8
0
10
238.018239
20
236.453622
40
8.543512
0
CIRCLE
8
0
10
255.105263
20
255.249349
40
8.543512
0
CIRCLE
8
0
10
255.105263
20
236.453622
40
8.543512
0
CIRCLE
8
0
10
238.018239
20
217.088327
40
8.543512
0
CIRCLE
8
0
10
238.018239
20
197.723033
40
8.543512
0
CIRCLE
8
0
10
255.105263
20
217.088327
40
8.543512
0
CIRCLE
8
0
10
255.105263
20
197.723033
40
8.543512
0
CIRCLE
8
0
10
272.192288
20
255.249349
40
8.543512
0
CIRCLE
8
0
10
272.192288
20
236.453622
40
8.543512
0
CIRCLE
8
0
10
289.279312
20
255.249349
40
8.543512
0
CIRCLE
8
0
10
289.279312
20
236.453622
40
8.543512
0
CIRCLE
8
0
10
272.192288
20
217.088327
40
8.543512
0
CIRCLE
8
0
10
272.192288
20
197.723033
40
8.543512
0
CIRCLE
8
0
10
289.279312
20
217.088327
40
8.543512
0
CIRCLE
8
0
10
289.279312
20
197.723033
40
8.543512
0
CIRCLE
8
0
10
238.018239
20
178.927306
40
8.543512
0
CIRCLE
8
0
10
238.018239
20
159.562011
40
8.543512
0
CIRCLE
8
0
10
255.105263
20
178.927306
40
8.543512
0
CIRCLE
8
0
10
255.105263
20
159.562011
40
8.543512
0
CIRCLE
8
0
10
238.018239
20
140.196717
40
8.543512
0
CIRCLE
8
0
10
238.018239
20
120.831423
40
8.543512
0
CIRCLE
8
0
10
255.105263
20
140.196717
40
8.543512
0
CIRCLE
8
0
10
255.105263
20
120.831423
40
8.543512
0
CIRCLE
8
0
10
272.192288
20
178.927306
40
8.543512
0
CIRCLE
8
0
10
272.192288
20
159.562011
40
8.543512
0
CIRCLE
8
0
10
289.279312
20
178.927306
40
8.543512
0
CIRCLE
8
0
10
289.279312
20
159.562011
40
8.543512
0
CIRCLE
8
0
10
272.192288
20
140.196717
40
8.543512
0
CIRCLE
8
0
10
272.192288
20
120.831423
40
8.543512
0
CIRCLE
8
0
10
289.279312
20
140.196717
40
8.543512
0
CIRCLE
8
0
10
289.279312
20
120.831423
40
8.543512
0
CIRCLE
8
0
10
306.366337
20
716.59901
40
8.543512
0
CIRCLE
8
0
10
306.366337
20
697.233715
40
8.543512
0
CIRCLE
8
0
10
323.453361
20
716.59901
40
8.543512
0
CIRCLE
8
0
10
323.453361
20
697.233715
40
8.543512
0
CIRCLE
8
0
10
306.366337
20
677.868421
40
8.543512
0
CIRCLE
8
0
10
306.366337
20
659.072694
40
8.543512
0
CIRCLE
8
0
10
323.453361
20
677.868421
40
8.543512
0
CIRCLE
8
0
10
323.453361
20
659.072694
40
8.543512
0
CIRCLE
8
0
10
340.540386
20
716.59901
40
8.543512
0
CIRCLE
8
0
10
340.540386
20
697.233715
40
8.543512
0
CIRCLE
8
0
10
357.62741
20
716.59901
40
8.543512
0
CIRCLE
8
0
10
340.540386
20
677.868421
40
8.543512
0
CIRCLE
8
0
10
340.540386
20
659.072694
40
8.543512
0
CIRCLE
8
0
10
357.62741
20
677.868421
40
8.543512
0
CIRCLE
8
0
10
357.62741
20
659.072694
40
8.543512
0
CIRCLE
8
0
10
400.344971
20
687.551068
40
34.174049
0
CIRCLE
8
0
10
408.888484
20
640.276967
40
8.543512
0
CIRCLE
8
0
10
425.975508
20
640.276967
40
8.543512
0
CIRCLE
8
0
10
408.888484
20
601.546378
40
8.543512
0
CIRCLE
8
0
10
425.975508
20
601.546378
40
8.543512
0
CIRCLE
8
0
10
425.975508
20
582.181084
40
8.543512
0
CIRCLE
8
0
10
314.909849
20
476.241532
40
17.087024
0
CIRCLE
8
0
10
306.366337
20
447.763158
40
8.543512
0
CIRCLE
8
0
10
306.366337
20
428.397863
40
8.543512
0
CIRCLE
8
0
10
323.453361
20
447.763158
40
8.543512
0
CIRCLE
8
0
10
323.453361
20
428.397863
40
8.543512
0
CIRCLE
8
0
10
349.083898
20
476.241532
40
17.087024
0
CIRCLE
8
0
10
340.540386
20
447.763158
40
8.543512
0
CIRCLE
8
0
10
340.540386
20
428.397863
40
8.543512
0
CIRCLE
8
0
10
357.62741
20
447.763158
40
8.543512
0
CIRCLE
8
0
10
357.62741
20
428.397863
40
8.543512
0
CIRCLE
8
0
10
374.714435
20
505.289474
40
8.543512
0
CIRCLE
8
0
10
391.801459
20
524.654768
40
8.543512
0
CIRCLE
8
0
10
391.801459
20
505.289474
40
8.543512
0
CIRCLE
8
0
10
408.888484
20
562.815789
40
8.543512
0
CIRCLE
8
0
10
408.888484
20
544.020063
40
8.543512
0
CIRCLE
8
0
10
425.975508
20
562.815789
40
8.543512
0
CIRCLE
8
0
10
425.975508
20
544.020063
40
8.543512
0
CIRCLE
8
0
10
417.431996
20
514.972121
40
17.087024
0
CIRCLE
8
0
10
374.714435
20
486.493747
40
8.543512
0
CIRCLE
8
0
10
374.714435
20
467.128452
40
8.543512
0
CIRCLE
8
0
10
391.801459
20
486.493747
40
8.543512
0
CIRCLE
8
0
10
391.801459
20
467.128452
40
8.543512
0
CIRCLE
8
0
10
374.714435
20
447.763158
40
8.543512
0
CIRCLE
8
0
10
374.714435
20
428.397863
40
8.543512
0
CIRCLE
8
0
10
391.801459
20
447.763158
40
8.543512
0
CIRCLE
8
0
10
391.801459
20
428.397863
40
8.543512
0
CIRCLE
8
0
10
408.888484
20
486.493747
40
8.543512
0
CIRCLE
8
0
10
408.888484
20
467.128452
40
8.543512
0
CIRCLE
8
0
10
425.975508
20
486.493747
40
8.543512
0
CIRCLE
8
0
10
425.975508
20
467.128452
40
8.543512
0
CIRCLE
8
0
10
417.431996
20
438.080511
40
17.087024
0
CIRCLE
8
0
10
451.606045
20
706.346795
40
17.087024
0
CIRCLE
8
0
10
451.606045
20
668.755341
40
17.087024
0
CIRCLE
8
0
10
477.236582
20
677.868421
40
8.543512
0
CIRCLE
8
0
10
494.323606
20
677.868421
40
8.543512
0
CIRCLE
8
0
10
443.062533
20
640.276967
40
8.543512
0
CIRCLE
8
0
10
460.149557
20
640.276967
40
8.543512
0
CIRCLE
8
0
10
460.149557
20
620.911673
40
8.543512
0
CIRCLE
8
0
10
443.062533
20
601.546378
40
8.543512
0
CIRCLE
8
0
10
443.062533
20
582.181084
40
8.543512
0
CIRCLE
8
0
10
460.149557
20
601.546378
40
8.543512
0
CIRCLE
8
0
10
460.149557
20
582.181084
40
8.543512
0
CIRCLE
8
0
10
477.236582
20
620.911673
40
8.543512
0
CIRCLE
8
0
10
494.323606
20
620.911673
40
8.543512
0
CIRCLE
8
0
10
477.236582
20
601.546378
40
8.543512
0
CIRCLE
8
0
10
477.236582
20
582.181084
40
8.543512
0
CIRCLE
8
0
10
494.323606
20
601.546378
40
8.543512
0
CIRCLE
8
0
10
494.323606
20
582.181084
40
8.543512
0
CIRCLE
8
0
10
511.410631
20
677.868421
40
8.543512
0
CIRCLE
8
0
10
528.497655
20
677.868421
40
8.543512
0
CIRCLE
8
0
10
554.128192
20
668.755341
40
17.087024
0
CIRCLE
8
0
10
511.410631
20
620.911673
40
8.543512
0
CIRCLE
8
0
10
511.410631
20
601.546378
40
8.543512
0
CIRCLE
8
0
10
511.410631
20
582.181084
40
8.543512
0
CIRCLE
8
0
10
528.497655
20
601.546378
40
8.543512
0
CIRCLE
8
0
10
528.497655
20
582.181084
40
8.543512
0
CIRCLE
8
0
10
443.062533
20
562.815789
40
8.543512
0
CIRCLE
8
0
10
443.062533
20
544.020063
40
8.543512
0
CIRCLE
8
0
10
460.149557
20
562.815789
40
8.543512
0
CIRCLE
8
0
10
460.149557
20
544.020063
40
8.543512
0
CIRCLE
8
0
10
443.062533
20
524.654768
40
8.543512
0
CIRCLE
8
0
10
443.062533
20
505.289474
40
8.543512
0
CIRCLE
8
0
10
460.149557
20
524.654768
40
8.543512
0
CIRCLE
8
0
10
460.149557
20
505.289474
40
8.543512
0
CIRCLE
8
0
10
477.236582
20
562.815789
40
8.543512
0
CIRCLE
8
0
10
477.236582
20
544.020063
40
8.543512
0
CIRCLE
8
0
10
494.323606
20
562.815789
40
8.543512
0
CIRCLE
8
0
10
494.323606
20
544.020063
40
8.543512
0
CIRCLE
8
0
10
477.236582
20
524.654768
40
8.543512
0
CIRCLE
8
0
10
477.236582
20
505.289474
40
8.543512
0
CIRCLE
8
0
10
494.323606
20
524.654768
40
8.543512
0
CIRCLE
8
0
10
494.323606
20
505.289474
40
8.543512
0
CIRCLE
8
0
10
443.062533
20
486.493747
40
8.543512
0
CIRCLE
8
0
10
443.062533
20
467.128452
40
8.543512
0
CIRCLE
8
0
10
460.149557
20
486.493747
40
8.543512
0
CIRCLE
8
0
10
460.149557
20
467.128452
40
8.543512
0
CIRCLE
8
0
10
443.062533
20
447.763158
40
8.543512
0
CIRCLE
8
0
10
443.062533
20
428.397863
40
8.543512
0
CIRCLE
8
0
10
460.149557
20
447.763158
40
8.543512
0
CIRCLE
8
0
10
460.149557
20
428.397863
40
8.543512
0
CIRCLE
8
0
10
477.236582
20
486.493747
40
8.543512
0
CIRCLE
8
0
10
477.236582
20
467.128452
40
8.543512
0
CIRCLE
8
0
10
494.323606
20
486.493747
40
8.543512
0
CIRCLE
8
0
10
494.323606
20
467.128452
40
8.543512
0
CIRCLE
8
0
10
477.236582
20
447.763158
40
8.543512
0
CIRCLE
8
0
10
477.236582
20
428.397863
40
8.543512
0
CIRCLE
8
0
10
494.323606
20
447.763158
40
8.543512
0
CIRCLE
8
0
10
494.323606
20
428.397863
40
8.543512
0
CIRCLE
8
0
10
511.410631
20
562.815789
40
8.543512
0
CIRCLE
8
0
10
511.410631
20
544.020063
40
8.543512
0
CIRCLE
8
0
10
528.497655
20
562.815789
40
8.543512
0
CIRCLE
8
0
10
528.497655
20
544.020063
40
8.543512
0
CIRCLE
8
0
10
511.410631
20
524.654768
40
8.543512
0
CIRCLE
8
0
10
511.410631
20
505.289474
40
8.543512
0
CIRCLE
8
0
10
528.497655
20
524.654768
40
8.543512
0
CIRCLE
8
0
10
528.497655
20
505.289474
40
8.543512
0
CIRCLE
8
0
10
545.58468
20
544.020063
40
8.543512
0
CIRCLE
8
0
10
545.58468
20
524.654768
40
8.543512
0
CIRCLE
8
0
10
545.58468
20
505.289474
40
8.543512
0
CIRCLE
8
0
10
562.671704
20
505.289474
40
8.543512
0
CIRCLE
8
0
10
511.410631
20
486.493747
40
8.543512
0
CIRCLE
8
0
10
511.410631
20
467.128452
40
8.543512
0
CIRCLE
8
0
10
528.497655
20
486.493747
40
8.543512
0
CIRCLE
8
0
10
528.497655
20
467.128452
40
8.543512
0
CIRCLE
8
0
10
511.410631
20
447.763158
40
8.543512
0
CIRCLE
8
0
10
511.410631
20
428.397863
40
8.543512
0
CIRCLE
8
0
10
528.497655
20
447.763158
40
8.543512
0
CIRCLE
8
0
10
528.497655
20
428.397863
40
8.543512
0
CIRCLE
8
0
10
545.58468
20
486.493747
40
8.543512
0
CIRCLE
8
0
10
545.58468
20
467.128452
40
8.543512
0
CIRCLE
8
0
10
562.671704
20
486.493747
40
8.543512
0
CIRCLE
8
0
10
545.58468
20
447.763158
40
8.543512
0
CIRCLE
8
0
10
545.58468
20
428.397863
40
8.543512
0
CIRCLE
8
0
10
562.671704
20
428.397863
40
8.543512
0
CIRCLE
8
0
10
306.366337
20
409.032569
40
8.543512
0
CIRCLE
8
0
10
306.366337
20
390.236842
40
8.543512
0
CIRCLE
8
0
10
323.453361
20
409.032569
40
8.543512
0
CIRCLE
8
0
10
323.453361
20
390.236842
40
8.543512
0
CIRCLE
8
0
10
306.366337
20
370.871548
40
8.543512
0
CIRCLE
8
0
10
306.366337
20
351.506253
40
8.543512
0
CIRCLE
8
0
10
323.453361
20
370.871548
40
8.543512
0
CIRCLE
8
0
10
323.453361
20
351.506253
40
8.543512
0
CIRCLE
8
0
10
340.540386
20
409.032569
40
8.543512
0
CIRCLE
8
0
10
340.540386
20
390.236842
40
8.543512
0
CIRCLE
8
0
10
357.62741
20
409.032569
40
8.543512
0
CIRCLE
8
0
10
357.62741
20
390.236842
40
8.543512
0
CIRCLE
8
0
10
340.540386
20
370.871548
40
8.543512
0
CIRCLE
8
0
10
340.540386
20
351.506253
40
8.543512
0
CIRCLE
8
0
10
357.62741
20
370.871548
40
8.543512
0
CIRCLE
8
0
10
357.62741
20
351.506253
40
8.543512
0
CIRCLE
8
0
10
306.366337
20
332.710526
40
8.543512
0
CIRCLE
8
0
10
306.366337
20
313.345232
40
8.543512
0
CIRCLE
8
0
10
323.453361
20
332.710526
40
8.543512
0
CIRCLE
8
0
10
323.453361
20
313.345232
40
8.543512
0
CIRCLE
8
0
10
306.366337
20
293.979937
40
8.543512
0
CIRCLE
8
0
10
306.366337
20
274.614643
40
8.543512
0
CIRCLE
8
0
10
323.453361
20
293.979937
40
8.543512
0
CIRCLE
8
0
10
323.453361
20
274.614643
40
8.543512
0
CIRCLE
8
0
10
340.540386
20
332.710526
40
8.543512
0
CIRCLE
8
0
10
340.540386
20
313.345232
40
8.543512
0
CIRCLE
8
0
10
357.62741
20
332.710526
40
8.543512
0
CIRCLE
8
0
10
357.62741
20
313.345232
40
8.543512
0
CIRCLE
8
0
10
340.540386
20
293.979937
40
8.543512
0
CIRCLE
8
0
10
340.540386
20
274.614643
40
8.543512
0
CIRCLE
8
0
10
357.62741
20
293.979937
40
8.543512
0
CIRCLE
8
0
10
357.62741
20
274.614643
40
8.543512
0
CIRCLE
8
0
10
374.714435
20
409.032569
40
8.543512
0
CIRCLE
8
0
10
374.714435
20
390.236842
40
8.543512
0
CIRCLE
8
0
10
391.801459
20
409.032569
40
8.543512
0
CIRCLE
8
0
10
391.801459
20
390.236842
40
8.543512
0
CIRCLE
8
0
10
374.714435
20
370.871548
40
8.543512
0
CIRCLE
8
0
10
374.714435
20
351.506253
40
8.543512
0
CIRCLE
8
0
10
391.801459
20
370.871548
40
8.543512
0
CIRCLE
8
0
10
391.801459
20
351.506253
40
8.543512
0
CIRCLE
8
0
10
417.431996
20
399.919489
40
17.087024
0
CIRCLE
8
0
10
417.431996
20
361.1889
40
17.087024
0
CIRCLE
8
0
10
374.714435
20
332.710526
40
8.543512
0
CIRCLE
8
0
10
374.714435
20
313.345232
40
8.543512
0
CIRCLE
8
0
10
391.801459
20
332.710526
40
8.543512
0
CIRCLE
8
0
10
391.801459
20
313.345232
40
8.543512
0
CIRCLE
8
0
10
374.714435
20
293.979937
40
8.543512
0
CIRCLE
8
0
10
374.714435
20
274.614643
40
8.543512
0
CIRCLE
8
0
10
391.801459
20
293.979937
40
8.543512
0
CIRCLE
8
0
10
391.801459
20
274.614643
40
8.543512
0
CIRCLE
8
0
10
408.888484
20
332.710526
40
8.543512
0
CIRCLE
8
0
10
408.888484
20
313.345232
40
8.543512
0
CIRCLE
8
0
10
425.975508
20
332.710526
40
8.543512
0
CIRCLE
8
0
10
425.975508
20
313.345232
40
8.543512
0
CIRCLE
8
0
10
408.888484
20
293.979937
40
8.543512
0
CIRCLE
8
0
10
408.888484
20
274.614643
40
8.543512
0
CIRCLE
8
0
10
425.975508
20
293.979937
40
8.543512
0
CIRCLE
8
0
10
425.975508
20
274.614643
40
8.543512
0
CIRCLE
8
0
10
306.366337
20
255.249349
40
8.543512
0
CIRCLE
8
0
10
306.366337
20
236.453622
40
8.543512
0
CIRCLE
8
0
10
323.453361
20
255.249349
40
8.543512
0
CIRCLE
8
0
10
323.453361
20
236.453622
40
8.543512
0
CIRCLE
8
0
10
306.366337
20
217.088327
40
8.543512
0
CIRCLE
8
0
10
306.366337
20
197.723033
40
8.543512
0
CIRCLE
8
0
10
323.453361
20
217.088327
40
8.543512
0
CIRCLE
8
0
10
323.453361
20
197.723033
40
8.543512
0
CIRCLE
8
0
10
340.540386
20
255.249349
40
8.543512
0
CIRCLE
8
0
10
340.540386
20
236.453622
40
8.543512
0
CIRCLE
8
0
10
357.62741
20
255.249349
40
8.543512
0
CIRCLE
8
0
10
357.62741
20
236.453622
40
8.543512
0
CIRCLE
8
0
10
340.540386
20
217.088327
40
8.543512
0
CIRCLE
8
0
10
340.540386
20
197.723033
40
8.543512
0
CIRCLE
8
0
10
357.62741
20
217.088327
40
8.543512
0
CIRCLE
8
0
10
357.62741
20
197.723033
40
8.543512
0
CIRCLE
8
0
10
306.366337
20
178.927306
40
8.543512
0
CIRCLE
8
0
10
306.366337
20
159.562011
40
8.543512
0
CIRCLE
8
0
10
323.453361
20
178.927306
40
8.543512
0
CIRCLE
8
0
10
323.453361
20
159.562011
40
8.543512
0
CIRCLE
8
0
10
306.366337
20
140.196717
40
8.543512
0
CIRCLE
8
0
10
306.366337
20
120.831423
40
8.543512
0
CIRCLE
8
0
10
323.453361
20
140.196717
40
8.543512
0
CIRCLE
8
0
10
323.453361
20
120.831423
40
8.543512
0
CIRCLE
8
0
10
340.540386
20
178.927306
40
8.543512
0
CIRCLE
8
0
10
340.540386
20
159.562011
40
8.543512
0
CIRCLE
8
0
10
357.62741
20
178.927306
40
8.543512
0
CIRCLE
8
0
10
357.62741
20
159.562011
40
8.543512
0
CIRCLE
8
0
10
340.540386
20
140.196717
40
8.543512
0
CIRCLE
8
0
10
340.540386
20
120.831423
40
8.543512
0
CIRCLE
8
0
10
357.62741
20
140.196717
40
8.543512
0
CIRCLE
8
0
10
357.62741
20
120.831423
40
8.543512
0
CIRCLE
8
0
10
374.714435
20
255.249349
40
8.543512
0
CIRCLE
8
0
10
374.714435
20
236.453622
40
8.543512
0
CIRCLE
8
0
10
391.801459
20
255.249349
40
8.543512
0
CIRCLE
8
0
10
391.801459
20
236.453622
40
8.543512
0
CIRCLE
8
0
10
374.714435
20
217.088327
40
8.543512
0
CIRCLE
8
0
10
374.714435
20
197.723033
40
8.543512
0
CIRCLE
8
0
10
391.801459
20
217.088327
40
8.543512
0
CIRCLE
8
0
10
391.801459
20
197.723033
40
8.543512
0
CIRCLE
8
0
10
408.888484
20
255.249349
40
8.543512
0
CIRCLE
8
0
10
408.888484
20
236.453622
40
8.543512
0
CIRCLE
8
0
10
425.975508
20
255.249349
40
8.543512
0
CIRCLE
8
0
10
425.975508
20
236.453622
40
8.543512
0
CIRCLE
8
0
10
408.888484
20
217.088327
40
8.543512
0
CIRCLE
8
0
10
408.888484
20
197.723033
40
8.543512
0
CIRCLE
8
0
10
425.975508
20
217.088327
40
8.543512
0
CIRCLE
8
0
10
425.975508
20
197.723033
40
8.543512
0
CIRCLE
8
0
10
374.714435
20
178.927306
40
8.543512
0
CIRCLE
8
0
10
374.714435
20
159.562011
40
8.543512
0
CIRCLE
8
0
10
391.801459
20
178.927306
40
8.543512
0
CIRCLE
8
0
10
391.801459
20
159.562011
40
8.543512
0
CIRCLE
8
0
10
374.714435
20
140.196717
40
8.543512
0
CIRCLE
8
0
10
374.714435
20
120.831423
40
8.543512
0
CIRCLE
8
0
10
391.801459
20
140.196717
40
8.543512
0
CIRCLE
8
0
10
391.801459
20
120.831423
40
8.543512
0
CIRCLE
8
0
10
408.888484
20
178.927306
40
8.543512
0
CIRCLE
8
0
10
408.888484
20
159.562011
40
8.543512
0
CIRCLE
8
0
10
425.975508
20
178.927306
40
8.543512
0
CIRCLE
8
0
10
425.975508
20
159.562011
40
8.543512
0
CIRCLE
8
0
10
408.888484
20
140.196717
40
8.543512
0
CIRCLE
8
0
10
408.888484
20
120.831423
40
8.543512
0
CIRCLE
8
0
10
425.975508
20
140.196717
40
8.543512
0
CIRCLE
8
0
10
425.975508
20
120.831423
40
8.543512
0
CIRCLE
8
0
10
451.606045
20
399.919489
40
17.087024
0
CIRCLE
8
0
10
451.606045
20
361.1889
40
17.087024
0
CIRCLE
8
0
10
485.780094
20
399.919489
40
17.087024
0
CIRCLE
8
0
10
477.236582
20
370.871548
40
8.543512
0
CIRCLE
8
0
10
477.236582
20
351.506253
40
8.543512
0
CIRCLE
8
0
10
494.323606
20
370.871548
40
8.543512
0
CIRCLE
8
0
10
494.323606
20
351.506253
40
8.543512
0
CIRCLE
8
0
10
443.062533
20
332.710526
40
8.543512
0
CIRCLE
8
0
10
443.062533
20
313.345232
40
8.543512
0
CIRCLE
8
0
10
460.149557
20
332.710526
40
8.543512
0
CIRCLE
8
0
10
460.149557
20
313.345232
40
8.543512
0
CIRCLE
8
0
10
443.062533
20
293.979937
40
8.543512
0
CIRCLE
8
0
10
443.062533
20
274.614643
40
8.543512
0
CIRCLE
8
0
10
460.149557
20
293.979937
40
8.543512
0
CIRCLE
8
0
10
460.149557
20
274.614643
40
8.543512
0
CIRCLE
8
0
10
477.236582
20
332.710526
40
8.543512
0
CIRCLE
8
0
10
477.236582
20
313.345232
40
8.543512
0
CIRCLE
8
0
10
494.323606
20
332.710526
40
8.543512
0
CIRCLE
8
0
10
494.323606
20
313.345232
40
8.543512
0
CIRCLE
8
0
10
477.236582
20
293.979937
40
8.543512
0
CIRCLE
8
0
10
477.236582
20
274.614643
40
8.543512
0
CIRCLE
8
0
10
494.323606
20
293.979937
40
8.543512
0
CIRCLE
8
0
10
494.323606
20
274.614643
40
8.543512
0
CIRCLE
8
0
10
511.410631
20
409.032569
40
8.543512
0
CIRCLE
8
0
10
511.410631
20
390.236842
40
8.543512
0
CIRCLE
8
0
10
528.497655
20
409.032569
40
8.543512
0
CIRCLE
8
0
10
528.497655
20
390.236842
40
8.543512
0
CIRCLE
8
0
10
511.410631
20
370.871548
40
8.543512
0
CIRCLE
8
0
10
511.410631
20
351.506253
40
8.543512
0
CIRCLE
8
0
10
528.497655
20
370.871548
40
8.543512
0
CIRCLE
8
0
10
528.497655
20
351.506253
40
8.543512
0
CIRCLE
8
0
10
545.58468
20
409.032569
40
8.543512
0
CIRCLE
8
0
10
545.58468
20
390.236842
40
8.543512
0
CIRCLE
8
0
10
562.671704
20
409.032569
40
8.543512
0
CIRCLE
8
0
10
562.671704
20
390.236842
40
8.543512
0
CIRCLE
8
0
10
545.58468
20
370.871548
40
8.543512
0
CIRCLE
8
0
10
545.58468
20
351.506253
40
8.543512
0
CIRCLE
8
0
10
562.671704
20
370.871548
40
8.543512
0
CIRCLE
8
0
10
562.671704
20
351.506253
40
8.543512
0
CIRCLE
8
0
10
511.410631
20
332.710526
40
8.543512
0
CIRCLE
8
0
10
511.410631
20
313.345232
40
8.543512
0
CIRCLE
8
0
10
528.497655
20
332.710526
40
8.543512
0
CIRCLE
8
0
10
528.497655
20
313.345232
40
8.543512
0
CIRCLE
8
0
10
511.410631
20
293.979937
40
8.543512
0
CIRCLE
8
0
10
511.410631
20
274.614643
40
8.543512
0
CIRCLE
8
0
10
528.497655
20
293.979937
40
8.543512
0
CIRCLE
8
0
10
528.497655
20
274.614643
40
8.543512
0
CIRCLE
8
0
10
545.58468
20
332.710526
40
8.543512
0
CIRCLE
8
0
10
545.58468
20
313.345232
40
8.543512
0
CIRCLE
8
0
10
562.671704
20
332.710526
40
8.543512
0
CIRCLE
8
0
10
562.671704
20
313.345232
40
8.543512
0
CIRCLE
8
0
10
545.58468
20
293.979937
40
8.543512
0
CIRCLE
8
0
10
545.58468
20
274.614643
40
8.543512
0
CIRCLE
8
0
10
562.671704
20
293.979937
40
8.543512
0
CIRCLE
8
0
10
562.671704
20
274.614643
40
8.543512
0
CIRCLE
8
0
10
443.062533
20
255.249349
40
8.543512
0
CIRCLE
8
0
10
443.062533
20
236.453622
40
8.543512
0
CIRCLE
8
0
10
460.149557
20
255.249349
40
8.543512
0
CIRCLE
8
0
10
460.149557
20
236.453622
40
8.543512
0
CIRCLE
8
0
10
443.062533
20
217.088327
40
8.543512
0
CIRCLE
8
0
10
443.062533
20
197.723033
40
8.543512
0
CIRCLE
8
0
10
460.149557
20
217.088327
40
8.543512
0
CIRCLE
8
0
10
460.149557
20
197.723033
40
8.543512
0
CIRCLE
8
0
10
477.236582
20
255.249349
40
8.543512
0
CIRCLE
8
0
10
477.236582
20
236.453622
40
8.543512
0
CIRCLE
8
0
10
494.323606
20
255.249349
40
8.543512
0
CIRCLE
8
0
10
494.323606
20
236.453622
40
8.543512
0
CIRCLE
8
0
10
477.236582
20
217.088327
40
8.543512
0
CIRCLE
8
0
10
477.236582
20
197.723033
40
8.543512
0
CIRCLE
8
0
10
494.323606
20
217.088327
40
8.543512
0
CIRCLE
8
0
10
494.323606
20
197.723033
40
8.543512
0
CIRCLE
8
0
10
443.062533
20
178.927306
40
8.543512
0
CIRCLE
8
0
10
443.062533
20
159.562011
40
8.543512
0
CIRCLE
8
0
10
460.149557
20
178.927306
40
8.543512
0
CIRCLE
8
0
10
460.149557
20
159.562011
40
8.543512
0
CIRCLE
8
0
10
443.062533
20
140.196717
40
8.543512
0
CIRCLE
8
0
10
443.062533
20
120.831423
40
8.543512
0
CIRCLE
8
0
10
460.149557
20
140.196717
40
8.543512
0
CIRCLE
8
0
10
460.149557
20
120.831423
40
8.543512
0
CIRCLE
8
0
10
477.236582
20
178.927306
40
8.543512
0
CIRCLE
8
0
10
477.236582
20
159.562011
40
8.543512
0
CIRCLE
8
0
10
494.323606
20
178.927306
40
8.543512
0
CIRCLE
8
0
10
494.323606
20
159.562011
40
8.543512
0
CIRCLE
8
0
10
477.236582
20
140.196717
40
8.543512
0
CIRCLE
8
0
10
477.236582
20
120.831423
40
8.543512
0
CIRCLE
8
0
10
494.323606
20
140.196717
40
8.543512
0
CIRCLE
8
0
10
494.323606
20
120.831423
40
8.543512
0
CIRCLE
8
0
10
511.410631
20
255.249349
40
8.543512
0
CIRCLE
8
0
10
511.410631
20
236.453622
40
8.543512
0
CIRCLE
8
0
10
528.497655
20
255.249349
40
8.543512
0
CIRCLE
8
0
10
528.497655
20
236.453622
40
8.543512
0
CIRCLE
8
0
10
511.410631
20
217.088327
40
8.543512
0
CIRCLE
8
0
10
511.410631
20
197.723033
40
8.543512
0
CIRCLE
8
0
10
528.497655
20
217.088327
40
8.543512
0
CIRCLE
8
0
10
528.497655
20
197.723033
40
8.543512
0
CIRCLE
8
0
10
545.58468
20
255.249349
40
8.543512
0
CIRCLE
8
0
10
545.58468
20
236.453622
40
8.543512
0
CIRCLE
8
0
10
562.671704
20
255.249349
40
8.543512
0
CIRCLE
8
0
10
562.671704
20
236.453622
40
8.543512
0
CIRCLE
8
0
10
545.58468
20
217.088327
40
8.543512
0
CIRCLE
8
0
10
545.58468
20
197.723033
40
8.543512
0
CIRCLE
8
0
10
562.671704
20
217.088327
40
8.543512
0
CIRCLE
8
0
10
562.671704
20
197.723033
40
8.543512
0
CIRCLE
8
0
10
511.410631
20
178.927306
40
8.543512
0
CIRCLE
8
0
10
511.410631
20
159.562011
40
8.543512
0
CIRCLE
8
0
10
528.497655
20
178.927306
40
8.543512
0
CIRCLE
8
0
10
528.497655
20
159.562011
40
8.543512
0
CIRCLE
8
0
10
511.410631
20
140.196717
40
8.543512
0
CIRCLE
8
0
10
511.410631
20
120.831423
40
8.543512
0
CIRCLE
8
0
10
528.497655
20
140.196717
40
8.543512
0
CIRCLE
8
0
10
528.497655
20
120.831423
40
8.543512
0
CIRCLE
8
0
10
545.58468
20
178.927306
40
8.543512
0
CIRCLE
8
0
10
545.58468
20
159.562011
40
8.543512
0
CIRCLE
8
0
10
562.671704
20
178.927306
40
8.543512
0
CIRCLE
8
0
10
562.671704
20
159.562011
40
8.543512
0
CIRCLE
8
0
10
545.58468
20
140.196717
40
8.543512
0
CIRCLE
8
0
10
545.58468
20
120.831423
40
8.543512
0
CIRCLE
8
0
10
562.671704
20
140.196717
40
8.543512
0
CIRCLE
8
0
10
562.671704
20
120.831423
40
8.543512
0
CIRCLE
8
0
10
579.758729
20
697.233715
40
8.543512
0
CIRCLE
8
0
10
588.302241
20
668.755341
40
17.087024
0
CIRCLE
8
0
10
613.932777
20
677.868421
40
8.543512
0
CIRCLE
8
0
10
613.932777
20
659.072694
40
8.543512
0
CIRCLE
8
0
10
631.019802
20
677.868421
40
8.543512
0
CIRCLE
8
0
10
648.106826
20
640.276967
40
8.543512
0
CIRCLE
8
0
10
648.106826
20
620.911673
40
8.543512
0
CIRCLE
8
0
10
665.193851
20
620.911673
40
8.543512
0
CIRCLE
8
0
10
682.280875
20
620.911673
40
8.543512
0
CIRCLE
8
0
10
699.3679
20
640.276967
40
8.543512
0
CIRCLE
8
0
10
605.389265
20
456.876238
40
34.174049
0
CIRCLE
8
0
10
673.737363
20
456.876238
40
34.174049
0
CIRCLE
8
0
10
716.454924
20
620.911673
40
8.543512
0
CIRCLE
8
0
10
750.628973
20
640.276967
40
8.543512
0
CIRCLE
8
0
10
750.628973
20
620.911673
40
8.543512
0
CIRCLE
8
0
10
767.715998
20
640.276967
40
8.543512
0
CIRCLE
8
0
10
767.715998
20
620.911673
40
8.543512
0
CIRCLE
8
0
10
750.628973
20
601.546378
40
8.543512
0
CIRCLE
8
0
10
776.25951
20
495.606826
40
68.348098
0
CIRCLE
8
0
10
579.758729
20
409.032569
40
8.543512
0
CIRCLE
8
0
10
579.758729
20
390.236842
40
8.543512
0
CIRCLE
8
0
10
596.845753
20
409.032569
40
8.543512
0
CIRCLE
8
0
10
596.845753
20
390.236842
40
8.543512
0
CIRCLE
8
0
10
579.758729
20
370.871548
40
8.543512
0
CIRCLE
8
0
10
579.758729
20
351.506253
40
8.543512
0
CIRCLE
8
0
10
596.845753
20
370.871548
40
8.543512
0
CIRCLE
8
0
10
596.845753
20
351.506253
40
8.543512
0
CIRCLE
8
0
10
613.932777
20
409.032569
40
8.543512
0
CIRCLE
8
0
10
613.932777
20
390.236842
40
8.543512
0
CIRCLE
8
0
10
631.019802
20
409.032569
40
8.543512
0
CIRCLE
8
0
10
631.019802
20
390.236842
40
8.543512
0
CIRCLE
8
0
10
613.932777
20
370.871548
40
8.543512
0
CIRCLE
8
0
10
613.932777
20
351.506253
40
8.543512
0
CIRCLE
8
0
10
631.019802
20
370.871548
40
8.543512
0
CIRCLE
8
0
10
631.019802
20
351.506253
40
8.543512
0
CIRCLE
8
0
10
579.758729
20
332.710526
40
8.543512
0
CIRCLE
8
0
10
579.758729
20
313.345232
40
8.543512
0
CIRCLE
8
0
10
596.845753
20
332.710526
40
8.543512
0
CIRCLE
8
0
10
596.845753
20
313.345232
40
8.543512
0
CIRCLE
8
0
10
579.758729
20
293.979937
40
8.543512
0
CIRCLE
8
0
10
579.758729
20
274.614643
40
8.543512
0
CIRCLE
8
0
10
596.845753
20
293.979937
40
8.543512
0
CIRCLE
8
0
10
596.845753
20
274.614643
40
8.543512
0
CIRCLE
8
0
10
613.932777
20
332.710526
40
8.543512
0
CIRCLE
8
0
10
613.932777
20
313.345232
40
8.543512
0
CIRCLE
8
0
10
631.019802
20
332.710526
40
8.543512
0
CIRCLE
8
0
10
631.019802
20
313.345232
40
8.543512
0
CIRCLE
8
0
10
613.932777
20
293.979937
40
8.543512
0
CIRCLE
8
0
10
613.932777
20
274.614643
40
8.543512
0
CIRCLE
8
0
10
631.019802
20
293.979937
40
8.543512
0
CIRCLE
8
0
10
631.019802
20
274.614643
40
8.543512
0
CIRCLE
8
0
10
648.106826
20
409.032569
40
8.543512
0
CIRCLE
8
0
10
648.106826
20
390.236842
40
8.543512
0
CIRCLE
8
0
10
648.106826
20
370.871548
40
8.543512
0
CIRCLE
8
0
10
648.106826
20
351.506253
40
8.543512
0
CIRCLE
8
0
10
665.193851
20
370.871548
40
8.543512
0
CIRCLE
8
0
10
665.193851
20
351.506253
40
8.543512
0
CIRCLE
8
0
10
648.106826
20
332.710526
40
8.543512
0
CIRCLE
8
0
10
648.106826
20
313.345232
40
8.543512
0
CIRCLE
8
0
10
665.193851
20
332.710526
40
8.543512
0
CIRCLE
8
0
10
665.193851
20
313.345232
40
8.543512
0
CIRCLE
8
0
10
648.106826
20
293.979937
40
8.543512
0
CIRCLE
8
0
10
648.106826
20
274.614643
40
8.543512
0
CIRCLE
8
0
10
665.193851
20
293.979937
40
8.543512
0
CIRCLE
8
0
10
665.193851
20
274.614643
40
8.543512
0
CIRCLE
8
0
10
682.280875
20
332.710526
40
8.543512
0
CIRCLE
8
0
10
682.280875
20
313.345232
40
8.543512
0
CIRCLE
8
0
10
699.3679
20
313.345232
40
8.543512
0
CIRCLE
8
0
10
682.280875
20
293.979937
40
8.543512
0
CIRCLE
8
0
10
682.280875
20
274.614643
40
8.543512
0
CIRCLE
8
0
10
699.3679
20
293.979937
40
8.543512
0
CIRCLE
8
0
10
699.3679
20
274.614643
40
8.543512
0
CIRCLE
8
0
10
579.758729
20
255.249349
40
8.543512
0
CIRCLE
8
0
10
579.758729
20
236.453622
40
8.543512
0
CIRCLE
8
0
10
596.845753
20
255.249349
40
8.543512
0
CIRCLE
8
0
10
596.845753
20
236.453622
40
8.543512
0
CIRCLE
8
0
10
579.758729
20
217.088327
40
8.543512
0
CIRCLE
8
0
10
579.758729
20
197.723033
40
8.543512
0
CIRCLE
8
0
10
596.845753
20
217.088327
40
8.543512
0
CIRCLE
8
0
10
596.845753
20
197.723033
40
8.543512
0
CIRCLE
8
0
10
613.932777
20
255.249349
40
8.543512
0
CIRCLE
8
0
10
613.932777
20
236.453622
40
8.543512
0
CIRCLE
8
0
10
631.019802
20
255.249349
40
8.543512
0
CIRCLE
8
0
10
631.019802
20
236.453622
40
8.543512
0
CIRCLE
8
0
10
613.932777
20
217.088327
40
8.543512
0
CIRCLE
8
0
10
613.932777
20
197.723033
40
8.543512
0
CIRCLE
8
0
10
631.019802
20
217.088327
40
8.543512
0
CIRCLE
8
0
10
579.758729
20
178.927306
40
8.543512
0
CIRCLE
8
0
10
579.758729
20
159.562011
40
8.543512
0
CIRCLE
8
0
10
596.845753
20
178.927306
40
8.543512
0
CIRCLE
8
0
10
596.845753
20
159.562011
40
8.543512
0
CIRCLE
8
0
10
579.758729
20
140.196717
40
8.543512
0
CIRCLE
8
0
10
579.758729
20
120.831423
40
8.543512
0
CIRCLE
8
0
10
596.845753
20
140.196717
40
8.543512
0
CIRCLE
8
0
10
596.845753
20
120.831423
40
8.543512
0
CIRCLE
8
0
10
613.932777
20
178.927306
40
8.543512
0
CIRCLE
8
0
10
613.932777
20
140.196717
40
8.543512
0
CIRCLE
8
0
10
613.932777
20
120.831423
40
8.543512
0
CIRCLE
8
0
10
631.019802
20
120.831423
40
8.543512
0
CIRCLE
8
0
10
648.106826
20
255.249349
40
8.543512
0
CIRCLE
8
0
10
648.106826
20
236.453622
40
8.543512
0
CIRCLE
8
0
10
665.193851
20
255.249349
40
8.543512
0
CIRCLE
8
0
10
665.193851
20
236.453622
40
8.543512
0
CIRCLE
8
0
10
648.106826
20
217.088327
40
8.543512
0
CIRCLE
8
0
10
648.106826
20
197.723033
40
8.543512
0
CIRCLE
8
0
10
665.193851
20
217.088327
40
8.543512
0
CIRCLE
8
0
10
665.193851
20
197.723033
40
8.543512
0
CIRCLE
8
0
10
682.280875
20
255.249349
40
8.543512
0
CIRCLE
8
0
10
682.280875
20
236.453622
40
8.543512
0
CIRCLE
8
0
10
699.3679
20
255.249349
40
8.543512
0
CIRCLE
8
0
10
699.3679
20
236.453622
40
8.543512
0
CIRCLE
8
0
10
682.280875
20
217.088327
40
8.543512
0
CIRCLE
8
0
10
682.280875
20
197.723033
40
8.543512
0
CIRCLE
8
0
10
699.3679
20
217.088327
40
8.543512
0
CIRCLE
8
0
10
699.3679
20
197.723033
40
8.543512
0
CIRCLE
8
0
10
648.106826
20
178.927306
40
8.543512
0
CIRCLE
8
0
10
648.106826
20
159.562011
40
8.543512
0
CIRCLE
8
0
10
665.193851
20
178.927306
40
8.543512
0
CIRCLE
8
0
10
665.193851
20
159.562011
40
8.543512
0
CIRCLE
8
0
10
665.193851
20
140.196717
40
8.543512
0
CIRCLE
8
0
10
665.193851
20
120.831423
40
8.543512
0
CIRCLE
8
0
10
682.280875
20
178.927306
40
8.543512
0
CIRCLE
8
0
10
682.280875
20
159.562011
40
8.543512
0
CIRCLE
8
0
10
699.3679
20
178.927306
40
8.543512
0
CIRCLE
8
0
10
699.3679
20
159.562011
40
8.543512
0
CIRCLE
8
0
10
682.280875
20
140.196717
40
8.543512
0
CIRCLE
8
0
10
682.280875
20
120.831423
40
8.543512
0
CIRCLE
8
0
10
699.3679
20
140.196717
40
8.543512
0
CIRCLE
8
0
10
699.3679
20
120.831423
40
8.543512
0
CIRCLE
8
0
10
716.454924
20
178.927306
40
8.543512
0
CIRCLE
8
0
10
716.454924
20
159.562011
40
8.543512
0
CIRCLE
8
0
10
733.541949
20
159.562011
40
8.543512
0
CIRCLE
8
0
10
716.454924
20
140.196717
40
8.543512
0
CIRCLE
8
0
10
716.454924
20
120.831423
40
8.543512
0
CIRCLE
8
0
10
733.541949
20
140.196717
40
8.543512
0
CIRCLE
8
0
10
733.541949
20
120.831423
40
8.543512
0
CIRCLE
8
0
10
750.628973
20
120.831423
40
8.543512
0
CIRCLE
8
0
10
870.238145
20
659.072694
40
8.543512
0
CIRCLE
8
0
10
887.325169
20
677.868421
40
8.543512
0
CIRCLE
8
0
10
887.325169
20
659.072694
40
8.543512
0
CIRCLE
8
0
10
904.412194
20
677.868421
40
8.543512
0
CIRCLE
8
0
10
904.412194
20
659.072694
40
8.543512
0
CIRCLE
8
0
10
921.499218
20
716.59901
40
8.543512
0
CIRCLE
8
0
10
921.499218
20
697.233715
40
8.543512
0
CIRCLE
8
0
10
938.586243
20
716.59901
40
8.543512
0
CIRCLE
8
0
10
938.586243
20
697.233715
40
8.543512
0
CIRCLE
8
0
10
921.499218
20
677.868421
40
8.543512
0
CIRCLE
8
0
10
921.499218
20
659.072694
40
8.543512
0
CIRCLE
8
0
10
938.586243
20
677.868421
40
8.543512
0
CIRCLE
8
0
10
938.586243
20
659.072694
40
8.543512
0
CIRCLE
8
0
10
955.673267
20
716.59901
40
8.543512
0
CIRCLE
8
0
10
955.673267
20
697.233715
40
8.543512
0
CIRCLE
8
0
10
972.760292
20
716.59901
40
8.543512
0
CIRCLE
8
0
10
972.760292
20
697.233715
40
8.543512
0
CIRCLE
8
0
10
955.673267
20
677.868421
40
8.543512
0
CIRCLE
8
0
10
955.673267
20
659.072694
40
8.543512
0
CIRCLE
8
0
10
972.760292
20
677.868421
40
8.543512
0
CIRCLE
8
0
10
972.760292
20
659.072694
40
8.543512
0
CIRCLE
8
0
10
921.499218
20
640.276967
40
8.543512
0
CIRCLE
8
0
10
938.586243
20
640.276967
40
8.543512
0
CIRCLE
8
0
10
938.586243
20
620.911673
40
8.543512
0
CIRCLE
8
0
10
921.499218
20
582.181084
40
8.543512
0
CIRCLE
8
0
10
938.586243
20
582.181084
40
8.543512
0
CIRCLE
8
0
10
955.673267
20
640.276967
40
8.543512
0
CIRCLE
8
0
10
955.673267
20
620.911673
40
8.543512
0
CIRCLE
8
0
10
972.760292
20
640.276967
40
8.543512
0
CIRCLE
8
0
10
972.760292
20
620.911673
40
8.543512
0
CIRCLE
8
0
10
955.673267
20
582.181084
40
8.543512
0
CIRCLE
8
0
10
972.760292
20
582.181084
40
8.543512
0
CIRCLE
8
0
10
861.694633
20
514.972121
40
17.087024
0
CIRCLE
8
0
10
895.868682
20
514.972121
40
17.087024
0
CIRCLE
8
0
10
878.781657
20
456.876238
40
34.174049
0
CIRCLE
8
0
10
921.499218
20
544.020063
40
8.543512
0
CIRCLE
8
0
10
938.586243
20
562.815789
40
8.543512
0
CIRCLE
8
0
10
938.586243
20
544.020063
40
8.543512
0
CIRCLE
8
0
10
930.042731
20
514.972121
40
17.087024
0
CIRCLE
8
0
10
955.673267
20
562.815789
40
8.543512
0
CIRCLE
8
0
10
955.673267
20
544.020063
40
8.543512
0
CIRCLE
8
0
10
972.760292
20
562.815789
40
8.543512
0
CIRCLE
8
0
10
972.760292
20
544.020063
40
8.543512
0
CIRCLE
8
0
10
964.21678
20
514.972121
40
17.087024
0
CIRCLE
8
0
10
947.129755
20
456.876238
40
34.174049
0
CIRCLE
8
0
10
989.847316
20
716.59901
40
8.543512
0
CIRCLE
8
0
10
989.847316
20
697.233715
40
8.543512
0
CIRCLE
8
0
10
1006.934341
20
716.59901
40
8.543512
0
CIRCLE
8
0
10
1006.934341
20
697.233715
40
8.543512
0
CIRCLE
8
0
10
989.847316
20
677.868421
40
8.543512
0
CIRCLE
8
0
10
989.847316
20
659.072694
40
8.543512
0
CIRCLE
8
0
10
1006.934341
20
677.868421
40
8.543512
0
CIRCLE
8
0
10
1006.934341
20
659.072694
40
8.543512
0
CIRCLE
8
0
10
1024.021365
20
716.59901
40
8.543512
0
CIRCLE
8
0
10
1024.021365
20
697.233715
40
8.543512
0
CIRCLE
8
0
10
1041.10839
20
716.59901
40
8.543512
0
CIRCLE
8
0
10
1041.10839
20
697.233715
40
8.543512
0
CIRCLE
8
0
10
1024.021365
20
677.868421
40
8.543512
0
CIRCLE
8
0
10
1024.021365
20
659.072694
40
8.543512
0
CIRCLE
8
0
10
1041.10839
20
677.868421
40
8.543512
0
CIRCLE
8
0
10
1041.10839
20
659.072694
40
8.543512
0
CIRCLE
8
0
10
989.847316
20
640.276967
40
8.543512
0
CIRCLE
8
0
10
989.847316
20
620.911673
40
8.543512
0
CIRCLE
8
0
10
1006.934341
20
640.276967
40
8.543512
0
CIRCLE
8
0
10
1006.934341
20
620.911673
40
8.543512
0
CIRCLE
8
0
10
998.390829
20
591.863731
40
17.087024
0
CIRCLE
8
0
10
1024.021365
20
640.276967
40
8.543512
0
CIRCLE
8
0
10
1024.021365
20
620.911673
40
8.543512
0
CIRCLE
8
0
10
1041.10839
20
640.276967
40
8.543512
0
CIRCLE
8
0
10
1041.10839
20
620.911673
40
8.543512
0
CIRCLE
8
0
10
1024.021365
20
601.546378
40
8.543512
0
CIRCLE
8
0
10
1024.021365
20
582.181084
40
8.543512
0
CIRCLE
8
0
10
1041.10839
20
601.546378
40
8.543512
0
CIRCLE
8
0
10
1041.10839
20
582.181084
40
8.543512
0
CIRCLE
8
0
10
1058.195414
20
716.59901
40
8.543512
0
CIRCLE
8
0
10
1058.195414
20
697.233715
40
8.543512
0
CIRCLE
8
0
10
1075.282439
20
716.59901
40
8.543512
0
CIRCLE
8
0
10
1075.282439
20
697.233715
40
8.543512
0
CIRCLE
8
0
10
1058.195414
20
677.868421
40
8.543512
0
CIRCLE
8
0
10
1058.195414
20
659.072694
40
8.543512
0
CIRCLE
8
0
10
1075.282439
20
677.868421
40
8.543512
0
CIRCLE
8
0
10
1075.282439
20
659.072694
40
8.543512
0
CIRCLE
8
0
10
1092.369463
20
716.59901
40
8.543512
0
CIRCLE
8
0
10
1092.369463
20
697.233715
40
8.543512
0
CIRCLE
8
0
10
1109.456488
20
716.59901
40
8.543512
0
CIRCLE
8
0
10
1109.456488
20
697.233715
40
8.543512
0
CIRCLE
8
0
10
1092.369463
20
677.868421
40
8.543512
0
CIRCLE
8
0
10
1092.369463
20
659.072694
40
8.543512
0
CIRCLE
8
0
10
1109.456488
20
677.868421
40
8.543512
0
CIRCLE
8
0
10
1109.456488
20
659.072694
40
8.543512
0
CIRCLE
8
0
10
1058.195414
20
640.276967
40
8.543512
0
CIRCLE
8
0
10
1058.195414
20
620.911673
40
8.543512
0
CIRCLE
8
0
10
1075.282439
20
640.276967
40
8.543512
0
CIRCLE
8
0
10
1075.282439
20
620.911673
40
8.543512
0
CIRCLE
8
0
10
1058.195414
20
601.546378
40
8.543512
0
CIRCLE
8
0
10
1058.195414
20
582.181084
40
8.543512
0
CIRCLE
8
0
10
1075.282439
20
601.546378
40
8.543512
0
CIRCLE
8
0
10
1092.369463
20
640.276967
40
8.543512
0
CIRCLE
8
0
10
1092.369463
20
620.911673
40
8.543512
0
CIRCLE
8
0
10
1109.456488
20
640.276967
40
8.543512
0
CIRCLE
8
0
10
1109.456488
20
620.911673
40
8.543512
0
CIRCLE
8
0
10
1092.369463
20
601.546378
40
8.543512
0
CIRCLE
8
0
10
1092.369463
20
582.181084
40
8.543512
0
CIRCLE
8
0
10
1109.456488
20
601.546378
40
8.543512
0
CIRCLE
8
0
10
989.847316
20
562.815789
40
8.543512
0
CIRCLE
8
0
10
989.847316
20
544.020063
40
8.543512
0
CIRCLE
8
0
10
1006.934341
20
562.815789
40
8.543512
0
CIRCLE
8
0
10
1006.934341
20
544.020063
40
8.543512
0
CIRCLE
8
0
10
998.390829
20
514.972121
40
17.087024
0
CIRCLE
8
0
10
1024.021365
20
562.815789
40
8.543512
0
CIRCLE
8
0
10
1024.021365
20
544.020063
40
8.543512
0
CIRCLE
8
0
10
1041.10839
20
562.815789
40
8.543512
0
CIRCLE
8
0
10
1041.10839
20
544.020063
40
8.543512
0
CIRCLE
8
0
10
1032.564878
20
514.972121
40
17.087024
0
CIRCLE
8
0
10
1015.477853
20
456.876238
40
34.174049
0
CIRCLE
8
0
10
1058.195414
20
562.815789
40
8.543512
0
CIRCLE
8
0
10
1058.195414
20
544.020063
40
8.543512
0
CIRCLE
8
0
10
1075.282439
20
562.815789
40
8.543512
0
CIRCLE
8
0
10
1075.282439
20
544.020063
40
8.543512
0
CIRCLE
8
0
10
1066.738927
20
514.972121
40
17.087024
0
CIRCLE
8
0
10
1092.369463
20
562.815789
40
8.543512
0
CIRCLE
8
0
10
1092.369463
20
544.020063
40
8.543512
0
CIRCLE
8
0
10
1109.456488
20
562.815789
40
8.543512
0
CIRCLE
8
0
10
1109.456488
20
544.020063
40
8.543512
0
CIRCLE
8
0
10
1092.369463
20
524.654768
40
8.543512
0
CIRCLE
8
0
10
1092.369463
20
505.289474
40
8.543512
0
CIRCLE
8
0
10
1109.456488
20
524.654768
40
8.543512
0
CIRCLE
8
0
10
1109.456488
20
505.289474
40
8.543512
0
CIRCLE
8
0
10
1083.825951
20
456.876238
40
34.174049
0
ENDSEC
0
EOF
